<svg xmlns="http://www.w3.org/2000/svg" width="1600" height="1000" viewBox="0 0 1600 1000" xmlns:c2pa="http://c2pa.org/manifest"><metadata><c2pa:manifest>AAAWgmp1bWIAAAAeanVtZGMycGEAEQAQgAAAqgA4m3EDYzJwYQAAABZcanVtYgAAAEdqdW1kYzJtYQARABCAAACqADibcQN1cm46YzJwYTo2MWUzNTM0ZC04MDM2LTRjMjEtYmEwMi1mN2I0MzUzYmU3ODkAAAADl2p1bWIAAAApanVtZGMyYXMAEQAQgAAAqgA4m3EDYzJwYS5hc3NlcnRpb25zAAAAALxqdW1iAAAARGp1bWRjYm9yABEAEIAAAKoAOJtxE2MycGEuaW5ncmVkaWVudC52MwAAAAAYYzJzaH5QB+Dqh5JvuaSW2/6bQPQAAABwY2JvcqNpZGM6Zm9ybWF0bWltYWdlL3N2Zyt4bWxqaW5zdGFuY2VJRHgseG1wOmlpZDo3MjJkZGNiZC1iYjc4LTRmZTAtOTcyMy04Nzk3ZjEzYzA2OGVscmVsYXRpb25zaGlwaHBhcmVudE9mAAAB4mp1bWIAAABBanVtZGNib3IAEQAQgAAAqgA4m3ETYzJwYS5hY3Rpb25zLnYyAAAAABhjMnNop3iO/1xVhCxWl3PLiskLIAAAAZljYm9yomdhY3Rpb25zgqJmYWN0aW9ua2MycGEub3BlbmVkanBhcmFtZXRlcnOha2luZ3JlZGllbnRzgaJjdXJseC1zZWxmI2p1bWJmPWMycGEuYXNzZXJ0aW9ucy9jMnBhLmluZ3JlZGllbnQudjNkaGFzaFgglJi7biSuVi5un/YXBaQYA12JoxDStli/teU942QBt7CkZmFjdGlvbngdY29tLmFudGhyb3BpYy5jbGF1ZGUucHJvdmlkZWRqcGFyYW1ldGVyc6F4H2NvbS5hbnRocm9waWMub3JpZ2luLWNvbmZpZGVuY2VndW5rbm93bmtkZXNjcmlwdGlvbnhmQ2xhdWRlIHByb3ZpZGVkIHRoaXMgZmlsZSBhdCB0aGUgcmVxdWVzdCBvZiBhIHVzZXIgYW5kIG1heSBoYXZlIGNyZWF0ZWQgb3IgbW9kaWZpZWQgdGhlIGZpbGUgY29udGVudHMubXNvZnR3YXJlQWdlbnShZG5hbWVmQ2xhdWRlcmFsbEFjdGlvbnNJbmNsdWRlZPUAAADIanVtYgAAAEBqdW1kY2JvcgARABCAAACqADibcRNjMnBhLmhhc2guZGF0YQAAAAAYYzJzaOf4k+X38xMociR2DlMhmrkAAACAY2JvcqVjYWxnZnNoYTI1NmNwYWRNAAAAAAAAAAAAAAAAAGRoYXNoWCDznncMf+yjUKI6VG66ElHDHyfBm1Af0ToYwCAtE4vl2WRuYW1lbmp1bWJmIG1hbmlmZXN0amV4Y2x1c2lvbnOBomVzdGFydBiaZmxlbmd0aBkeBAAAAj5qdW1iAAAAJ2p1bWRjMmNsABEAEIAAAKoAOJtxA2MycGEuY2xhaW0udjIAAAACD2Nib3KlY2FsZ2ZzaGEyNTZpc2lnbmF0dXJleE1zZWxmI2p1bWJmPS9jMnBhL3VybjpjMnBhOjYxZTM1MzRkLTgwMzYtNGMyMS1iYTAyLWY3YjQzNTNiZTc4OS9jMnBhLnNpZ25hdHVyZWppbnN0YW5jZUlEeCx4bXA6aWlkOjU5MjYwZWU0LTlkZDAtNDczNy1hNGViLTk0NTk5M2YyYWMyNnJjcmVhdGVkX2Fzc2VydGlvbnODomN1cmx4LXNlbGYjanVtYmY9YzJwYS5hc3NlcnRpb25zL2MycGEuaW5ncmVkaWVudC52M2RoYXNoWCCUmLtuJK5WLm6f9hcFpBgDXYmjENK2WL+15T3jZAG3sKJjdXJseCpzZWxmI2p1bWJmPWMycGEuYXNzZXJ0aW9ucy9jMnBhLmFjdGlvbnMudjJkaGFzaFggt/W0cNG2GiY0iRcSslBMdgu0qLvHp+Ef8GjD81wgvRWiY3VybHgpc2VsZiNqdW1iZj1jMnBhLmFzc2VydGlvbnMvYzJwYS5oYXNoLmRhdGFkaGFzaFggMu+mSMxKyWIO7ljtC2nFvNtqXZ0z+x3rukc3ZW2R+SN0Y2xhaW1fZ2VuZXJhdG9yX2luZm+jZG5hbWVvQW50aHJvcGljIEZpbGVzZ3ZlcnNpb25lMS4wLjBrc3BlY1ZlcnNpb25lMi40LjAAABA4anVtYgAAAChqdW1kYzJjcwARABCAAACqADibcQNjMnBhLnNpZ25hdHVyZQAAABAIY2JvctKEWQISogEmGCFZAgowggIGMIIBjaADAgECAhRA5aAK7sI50L64g/oGQgU9Z1UTADAKBggqhkjOPQQDAzBJMRcwFQYDVQQKEw5BbnRocm9waWMsIFBCQzEuMCwGA1UEAxMlQW50aHJvcGljIENvbnRlbnQgQ3JlZGVudGlhbHMgUm9vdCBDQTAeFw0yNjA4MDcxODQzNTZaFw0yODA4MDYxOTQzNTZaMEQxFzAVBgNVBAoTDkFudGhyb3BpYywgUEJDMSkwJwYDVQQDEyBBbnRocm9waWMgQ2xhdWRlIENvbnRlbnQgU2lnbmluZzBZMBMGByqGSM49AgEGCCqGSM49AwEHA0IABJh6CmvLUBgFFNU0vUKlOVtE6djd17L5SuwX0LemFisBM3dkd/3cyjxFA3Qo5S46fX0/ihY0VZ7mfb9KF703t5OjWDBWMA4GA1UdDwEB/wQEAwIHgDAVBgNVHSUEDjAMBgorBgEEAYPoXgIBMAwGA1UdEwEB/wQCMAAwHwYDVR0jBBgwFoAUzlHiBIFOZFsj+OPEz5o+nMHXXMIwCgYIKoZIzj0EAwMDZwAwZAIwMXMdFJ4BetLLVY7ORuE9noqbbAZOZn/aArXyTwFAZfKrPzxF2vPoJNf1+UCdg1XGAjBwX1zd9WGqYkqmL5SFqw1QySjr1zJfpJM9+1rdDwSPLMOPOjKuiXjoU/pUUeG9RwmhY3BhZFkNngAAAAAAAAAAAAAAAAAAAAAAAAAAAAAAAAAAAAAAAAAAAAAAAAAAAAAAAAAAAAAAAAAAAAAAAAAAAAAAAAAAAAAAAAAAAAAAAAAAAAAAAAAAAAAAAAAAAAAAAAAAAAAAAAAAAAAAAAAAAAAAAAAAAAAAAAAAAAAAAAAAAAAAAAAAAAAAAAAAAAAAAAAAAAAAAAAAAAAAAAAAAAAAAAAAAAAAAAAAAAAAAAAAAAAAAAAAAAAAAAAAAAAAAAAAAAAAAAAAAAAAAAAAAAAAAAAAAAAAAAAAAAAAAAAAAAAAAAAAAAAAAAAAAAAAAAAAAAAAAAAAAAAAAAAAAAAAAAAAAAAAAAAAAAAAAAAAAAAAAAAAAAAAAAAAAAAAAAAAAAAAAAAAAAAAAAAAAAAAAAAAAAAAAAAAAAAAAAAAAAAAAAAAAAAAAAAAAAAAAAAAAAAAAAAAAAAAAAAAAAAAAAAAAAAAAAAAAAAAAAAAAAAAAAAAAAAAAAAAAAAAAAAAAAAAAAAAAAAAAAAAAAAAAAAAAAAAAAAAAAAAAAAAAAAAAAAAAAAAAAAAAAAAAAAAAAAAAAAAAAAAAAAAAAAAAAAAAAAAAAAAAAAAAAAAAAAAAAAAAAAAAAAAAAAAAAAAAAAAAAAAAAAAAAAAAAAAAAAAAAAAAAAAAAAAAAAAAAAAAAAAAAAAAAAAAAAAAAAAAAAAAAAAAAAAAAAAAAAAAAAAAAAAAAAAAAAAAAAAAAAAAAAAAAAAAAAAAAAAAAAAAAAAAAAAAAAAAAAAAAAAAAAAAAAAAAAAAAAAAAAAAAAAAAAAAAAAAAAAAAAAAAAAAAAAAAAAAAAAAAAAAAAAAAAAAAAAAAAAAAAAAAAAAAAAAAAAAAAAAAAAAAAAAAAAAAAAAAAAAAAAAAAAAAAAAAAAAAAAAAAAAAAAAAAAAAAAAAAAAAAAAAAAAAAAAAAAAAAAAAAAAAAAAAAAAAAAAAAAAAAAAAAAAAAAAAAAAAAAAAAAAAAAAAAAAAAAAAAAAAAAAAAAAAAAAAAAAAAAAAAAAAAAAAAAAAAAAAAAAAAAAAAAAAAAAAAAAAAAAAAAAAAAAAAAAAAAAAAAAAAAAAAAAAAAAAAAAAAAAAAAAAAAAAAAAAAAAAAAAAAAAAAAAAAAAAAAAAAAAAAAAAAAAAAAAAAAAAAAAAAAAAAAAAAAAAAAAAAAAAAAAAAAAAAAAAAAAAAAAAAAAAAAAAAAAAAAAAAAAAAAAAAAAAAAAAAAAAAAAAAAAAAAAAAAAAAAAAAAAAAAAAAAAAAAAAAAAAAAAAAAAAAAAAAAAAAAAAAAAAAAAAAAAAAAAAAAAAAAAAAAAAAAAAAAAAAAAAAAAAAAAAAAAAAAAAAAAAAAAAAAAAAAAAAAAAAAAAAAAAAAAAAAAAAAAAAAAAAAAAAAAAAAAAAAAAAAAAAAAAAAAAAAAAAAAAAAAAAAAAAAAAAAAAAAAAAAAAAAAAAAAAAAAAAAAAAAAAAAAAAAAAAAAAAAAAAAAAAAAAAAAAAAAAAAAAAAAAAAAAAAAAAAAAAAAAAAAAAAAAAAAAAAAAAAAAAAAAAAAAAAAAAAAAAAAAAAAAAAAAAAAAAAAAAAAAAAAAAAAAAAAAAAAAAAAAAAAAAAAAAAAAAAAAAAAAAAAAAAAAAAAAAAAAAAAAAAAAAAAAAAAAAAAAAAAAAAAAAAAAAAAAAAAAAAAAAAAAAAAAAAAAAAAAAAAAAAAAAAAAAAAAAAAAAAAAAAAAAAAAAAAAAAAAAAAAAAAAAAAAAAAAAAAAAAAAAAAAAAAAAAAAAAAAAAAAAAAAAAAAAAAAAAAAAAAAAAAAAAAAAAAAAAAAAAAAAAAAAAAAAAAAAAAAAAAAAAAAAAAAAAAAAAAAAAAAAAAAAAAAAAAAAAAAAAAAAAAAAAAAAAAAAAAAAAAAAAAAAAAAAAAAAAAAAAAAAAAAAAAAAAAAAAAAAAAAAAAAAAAAAAAAAAAAAAAAAAAAAAAAAAAAAAAAAAAAAAAAAAAAAAAAAAAAAAAAAAAAAAAAAAAAAAAAAAAAAAAAAAAAAAAAAAAAAAAAAAAAAAAAAAAAAAAAAAAAAAAAAAAAAAAAAAAAAAAAAAAAAAAAAAAAAAAAAAAAAAAAAAAAAAAAAAAAAAAAAAAAAAAAAAAAAAAAAAAAAAAAAAAAAAAAAAAAAAAAAAAAAAAAAAAAAAAAAAAAAAAAAAAAAAAAAAAAAAAAAAAAAAAAAAAAAAAAAAAAAAAAAAAAAAAAAAAAAAAAAAAAAAAAAAAAAAAAAAAAAAAAAAAAAAAAAAAAAAAAAAAAAAAAAAAAAAAAAAAAAAAAAAAAAAAAAAAAAAAAAAAAAAAAAAAAAAAAAAAAAAAAAAAAAAAAAAAAAAAAAAAAAAAAAAAAAAAAAAAAAAAAAAAAAAAAAAAAAAAAAAAAAAAAAAAAAAAAAAAAAAAAAAAAAAAAAAAAAAAAAAAAAAAAAAAAAAAAAAAAAAAAAAAAAAAAAAAAAAAAAAAAAAAAAAAAAAAAAAAAAAAAAAAAAAAAAAAAAAAAAAAAAAAAAAAAAAAAAAAAAAAAAAAAAAAAAAAAAAAAAAAAAAAAAAAAAAAAAAAAAAAAAAAAAAAAAAAAAAAAAAAAAAAAAAAAAAAAAAAAAAAAAAAAAAAAAAAAAAAAAAAAAAAAAAAAAAAAAAAAAAAAAAAAAAAAAAAAAAAAAAAAAAAAAAAAAAAAAAAAAAAAAAAAAAAAAAAAAAAAAAAAAAAAAAAAAAAAAAAAAAAAAAAAAAAAAAAAAAAAAAAAAAAAAAAAAAAAAAAAAAAAAAAAAAAAAAAAAAAAAAAAAAAAAAAAAAAAAAAAAAAAAAAAAAAAAAAAAAAAAAAAAAAAAAAAAAAAAAAAAAAAAAAAAAAAAAAAAAAAAAAAAAAAAAAAAAAAAAAAAAAAAAAAAAAAAAAAAAAAAAAAAAAAAAAAAAAAAAAAAAAAAAAAAAAAAAAAAAAAAAAAAAAAAAAAAAAAAAAAAAAAAAAAAAAAAAAAAAAAAAAAAAAAAAAAAAAAAAAAAAAAAAAAAAAAAAAAAAAAAAAAAAAAAAAAAAAAAAAAAAAAAAAAAAAAAAAAAAAAAAAAAAAAAAAAAAAAAAAAAAAAAAAAAAAAAAAAAAAAAAAAAAAAAAAAAAAAAAAAAAAAAAAAAAAAAAAAAAAAAAAAAAAAAAAAAAAAAAAAAAAAAAAAAAAAAAAAAAAAAAAAAAAAAAAAAAAAAAAAAAAAAAAAAAAAAAAAAAAAAAAAAAAAAAAAAAAAAAAAAAAAAAAAAAAAAAAAAAAAAAAAAAAAAAAAAAAAAAAAAAAAAAAAAAAAAAAAAAAAAAAAAAAAAAAAAAAAAAAAAAAAAAAAAAAAAAAAAAAAAAAAAAAAAAAAAAAAAAAAAAAAAAAAAAAAAAAAAAAAAAAAAAAAAAAAAAAAAAAAAAAAAAAAAAAAAAAAAAAAAAAAAAAAAAAAAAAAAAAAAAAAAAAAAAAAAAAAAAAAAAAAAAAAAAAAAAAAAAAAAAAAAAAAAAAAAAAAAAAAAAAAAAAAAAAAAAAAAAAAAAAAAAAAAAAAAAAAAAAAAAAAAAAAAAAAAAAAAAAAAAAAAAAAAAAAAAAAAAAAAAAAAAAAAAAAAAAAAAAAAAAAAAAAAAAAAAAAAAAAAAAAAAAAAAAAAAAAAAAAAAAAAAAAAAAAAAAAAAAAAAAAAAAAAAAAAAAAAAAAAAAAAAAAAAAAAAAAAAAAAAAAAAAAAAAAAAAAAAAAAAAAAAAAAAAAAAAAAAAAAAAAAAAAAAAAAAAAAAAAAAAAAAAAAAAAAAAAAAAAAAAAAAAAAAAAAAAAAAAAAAAAAAAAAAAAAAAAAAAAAAAAAAAAAAAAAAAAAAAAAAAAAAAAAAAAAAAAAAAAAAAAAAAAAAAAAAAAAAAAAAAAAAAAAAAAAAAAAAAAAAAAAAAAAAAAAAAAAAAAAAAAAAAAAAAAAAAAAAAAAAAAAAAAAAAAAAAAAAAAAAAAAAAAAAAAAAAAAAAAAAAAAAAAAAAAAAAAAAAAAAAAAAAAAAAAAAAAAAAAAAAAAAAAAAAAAAAAAAAAAAAAAAAAAAAAAAAAAAAAAAAAAAAAAAAAAAAAAAAAAAAAAAAAAAAAAAAAAAAAAAAAAAAAAAAAAAAAAAAAAAAAAAAAAAAAAAAAAAAAAAAAAAAAAAAAAAAAAAAAAAAAAAAAAAAAAAAAAAAAAAAAAAAAAAAAAAAAAAAAAAAAAAAAAAAAAAAAAAAAAAAAAAAAAAAAAAAAAAAAAAAAAAAAAAAAAAAAAAAAAAAAAAAAAAAAAAAAAAAAAAAAAAAAAAAAAAAAAAAAAAAAAAAAAAAAAAAAAAAAAAAAAAAAAAAAAAAAAAAAAAAAAAAAAAAAAAAAAAAAAAAAAAAAAAAAAAAAAAAAAAAAAAAAAAAAAAAAAAAAAAAAAAAAAAAAAAAAAAAAAAAAAAAAAAAAAAAAAAAAAAAAAAAAAAAAAAAAAAAAAAAAAAAAAAAAAAAAAAAAAAAAAAAAAAAAAAAAAAAAAAAAAAAAAAAAAAAAAAAAAAAAAAAAAAAAAAAAAAAAAAAAAAAAAAAAAAAAAAAAAAAAAAAAAAAAAAAAAAAAAAAAAAAAAAAAAAAPZYQHwbUyp3oZYwjlhzmG7/7EWHaqiS7BW/X5iglFDM0nRV17v8ztAceODLPb+8ymZBv1lJqfh+82cX4WbliXZ8T08=</c2pa:manifest></metadata>
<defs><clipPath id="L"><rect x="260" y="140" width="628" height="720" rx="14"/></clipPath><clipPath id="R"><rect x="1024" y="223" width="312" height="554" rx="12"/></clipPath><clipPath id="RL"><rect x="1024" y="382" width="312" height="395"/></clipPath></defs>
<style>
.lrow{animation:lrow 10s ease-in-out infinite}
.sel{animation:pick 10s ease-in-out infinite}
.ring{animation:ring 10s ease-out infinite;transform-box:fill-box;transform-origin:center}
.cur{animation:blink 1.06s steps(1) infinite}
@keyframes lrow{0%{opacity:0}6%{opacity:1}88%{opacity:1}95%{opacity:0}100%{opacity:0}}
@keyframes pick{
0%{transform:translateY(-166px);opacity:0}
12%{transform:translateY(-166px);opacity:0}
16%{transform:translateY(-166px);opacity:1}
22%{transform:translateY(-166px)}
27%{transform:translateY(-124px)}
33%{transform:translateY(-124px)}
38%{transform:translateY(-83px)}
44%{transform:translateY(-83px)}
49%{transform:translateY(-41px)}
55%{transform:translateY(-41px)}
60%{transform:translateY(0);opacity:1}
88%{transform:translateY(0);opacity:1}
95%{transform:translateY(0);opacity:0}
100%{transform:translateY(-166px);opacity:0}}
@keyframes ring{0%{opacity:0;transform:scale(.8)}59%{opacity:0;transform:scale(.8)}64%{opacity:1;transform:scale(1.08)}68%{transform:scale(1)}88%{opacity:1;transform:scale(1)}95%{opacity:0;transform:scale(1)}100%{opacity:0;transform:scale(.8)}}
@keyframes blink{0%{opacity:1}50%{opacity:0}}
@media (prefers-reduced-motion:reduce){.lrow,.sel,.ring,.cur{animation:none}}
</style>
<rect width="1600" height="1000" fill="#DDE1E8"/>
<g clip-path="url(#L)">
<rect x="260" y="140" width="628" height="720" fill="#2C2C2C"/>
<line x1="484.5" y1="140" x2="484.5" y2="860" stroke="#3C3C3C" stroke-width="1"/>
<line x1="260" y1="174.5" x2="888" y2="174.5" stroke="#3C3C3C" stroke-width="1"/>
<text x="271" y="156" font-family="Inter, -apple-system, Segoe UI, Roboto, sans-serif" font-size="10.5" font-weight="600" fill="#F0F0F0" text-anchor="start" dominant-baseline="central" >Variables</text>
<rect x="457.5" y="150.5" width="13" height="11" rx="1.5" fill="none" stroke="#CFCFCF" stroke-width="1.1"/><line x1="461.5" y1="150.5" x2="461.5" y2="161.5" stroke="#CFCFCF" stroke-width="1.1"/>
<text x="271" y="194" font-family="Inter, -apple-system, Segoe UI, Roboto, sans-serif" font-size="10.5" font-weight="600" fill="#F0F0F0" text-anchor="start" dominant-baseline="central" >Collections</text>
<path d="M459 194H469M464 189V199" stroke="#D0D0D0" stroke-width="1.2" stroke-linecap="round"/>
<text x="271" y="228" font-family="Inter, -apple-system, Segoe UI, Roboto, sans-serif" font-size="10.5" font-weight="400" fill="#D8D8D8" text-anchor="start" dominant-baseline="central" >Brand</text>
<text x="469" y="228" font-family="Inter, -apple-system, Segoe UI, Roboto, sans-serif" font-size="10.5" font-weight="400" fill="#9A9A9A" text-anchor="end" dominant-baseline="central" >118</text>
<rect x="265" y="247" width="212" height="23" rx="4" fill="#3A3A3A"/>
<text x="271" y="258.5" font-family="Inter, -apple-system, Segoe UI, Roboto, sans-serif" font-size="10.5" font-weight="600" fill="#F5F5F5" text-anchor="start" dominant-baseline="central" >Primitive</text>
<text x="469" y="258.5" font-family="Inter, -apple-system, Segoe UI, Roboto, sans-serif" font-size="10.5" font-weight="400" fill="#B0B0B0" text-anchor="end" dominant-baseline="central" >132</text>
<line x1="260" y1="283.5" x2="484" y2="283.5" stroke="#3C3C3C" stroke-width="1"/>
<text x="272" y="301" font-family="Inter, -apple-system, Segoe UI, Roboto, sans-serif" font-size="10.5" font-weight="600" fill="#F0F0F0" text-anchor="start" dominant-baseline="central" >Groups</text>
<path d="M460 297h7M460 301h5M460 305h7M466 299.5l4 4M470 299.5l-4 4" stroke="#CFCFCF" stroke-width="1.1" stroke-linecap="round"/>
<rect x="265" y="506" width="211" height="83" rx="4" fill="#3A4868"/>
<rect x="265" y="506" width="211" height="22" rx="4" fill="#4D5E8E"/>
<text x="272" y="335" font-family="Inter, -apple-system, Segoe UI, Roboto, sans-serif" font-size="10.5" font-weight="400" fill="#D8D8D8" text-anchor="start" dominant-baseline="central" >All</text>
<text x="468" y="335" font-family="Inter, -apple-system, Segoe UI, Roboto, sans-serif" font-size="10.5" font-weight="400" fill="#9A9A9A" text-anchor="end" dominant-baseline="central" >132</text>
<text x="280" y="365" font-family="Inter, -apple-system, Segoe UI, Roboto, sans-serif" font-size="10.5" font-weight="400" fill="#D8D8D8" text-anchor="start" dominant-baseline="central" >Color</text>
<text x="468" y="365" font-family="Inter, -apple-system, Segoe UI, Roboto, sans-serif" font-size="10.5" font-weight="400" fill="#9A9A9A" text-anchor="end" dominant-baseline="central" >85</text>
<text x="295" y="396" font-family="Inter, -apple-system, Segoe UI, Roboto, sans-serif" font-size="10.5" font-weight="400" fill="#D8D8D8" text-anchor="start" dominant-baseline="central" >Neutrals</text>
<text x="468" y="396" font-family="Inter, -apple-system, Segoe UI, Roboto, sans-serif" font-size="10.5" font-weight="400" fill="#9A9A9A" text-anchor="end" dominant-baseline="central" >11</text>
<text x="295" y="426" font-family="Inter, -apple-system, Segoe UI, Roboto, sans-serif" font-size="10.5" font-weight="400" fill="#D8D8D8" text-anchor="start" dominant-baseline="central" >CMRC</text>
<text x="468" y="426" font-family="Inter, -apple-system, Segoe UI, Roboto, sans-serif" font-size="10.5" font-weight="400" fill="#9A9A9A" text-anchor="end" dominant-baseline="central" >16</text>
<text x="310" y="456" font-family="Inter, -apple-system, Segoe UI, Roboto, sans-serif" font-size="10.5" font-weight="400" fill="#D8D8D8" text-anchor="start" dominant-baseline="central" >Brand</text>
<text x="468" y="456" font-family="Inter, -apple-system, Segoe UI, Roboto, sans-serif" font-size="10.5" font-weight="400" fill="#9A9A9A" text-anchor="end" dominant-baseline="central" >6</text>
<text x="310" y="487" font-family="Inter, -apple-system, Segoe UI, Roboto, sans-serif" font-size="10.5" font-weight="400" fill="#D8D8D8" text-anchor="start" dominant-baseline="central" >Secondary</text>
<text x="468" y="487" font-family="Inter, -apple-system, Segoe UI, Roboto, sans-serif" font-size="10.5" font-weight="400" fill="#9A9A9A" text-anchor="end" dominant-baseline="central" >10</text>
<text x="295" y="517" font-family="Inter, -apple-system, Segoe UI, Roboto, sans-serif" font-size="10.5" font-weight="600" fill="#F5F5F5" text-anchor="start" dominant-baseline="central" >FDX</text>
<text x="468" y="517" font-family="Inter, -apple-system, Segoe UI, Roboto, sans-serif" font-size="10.5" font-weight="400" fill="#D8DEEE" text-anchor="end" dominant-baseline="central" >26</text>
<text x="310" y="547" font-family="Inter, -apple-system, Segoe UI, Roboto, sans-serif" font-size="10.5" font-weight="400" fill="#D8D8D8" text-anchor="start" dominant-baseline="central" >Brand</text>
<text x="468" y="547" font-family="Inter, -apple-system, Segoe UI, Roboto, sans-serif" font-size="10.5" font-weight="400" fill="#D8DEEE" text-anchor="end" dominant-baseline="central" >10</text>
<text x="310" y="578" font-family="Inter, -apple-system, Segoe UI, Roboto, sans-serif" font-size="10.5" font-weight="400" fill="#D8D8D8" text-anchor="start" dominant-baseline="central" >Expanded</text>
<text x="468" y="578" font-family="Inter, -apple-system, Segoe UI, Roboto, sans-serif" font-size="10.5" font-weight="400" fill="#D8DEEE" text-anchor="end" dominant-baseline="central" >16</text>
<text x="295" y="608" font-family="Inter, -apple-system, Segoe UI, Roboto, sans-serif" font-size="10.5" font-weight="400" fill="#D8D8D8" text-anchor="start" dominant-baseline="central" >BC</text>
<text x="468" y="608" font-family="Inter, -apple-system, Segoe UI, Roboto, sans-serif" font-size="10.5" font-weight="400" fill="#9A9A9A" text-anchor="end" dominant-baseline="central" >30</text>
<text x="310" y="638" font-family="Inter, -apple-system, Segoe UI, Roboto, sans-serif" font-size="10.5" font-weight="400" fill="#D8D8D8" text-anchor="start" dominant-baseline="central" >Brand</text>
<text x="468" y="638" font-family="Inter, -apple-system, Segoe UI, Roboto, sans-serif" font-size="10.5" font-weight="400" fill="#9A9A9A" text-anchor="end" dominant-baseline="central" >6</text>
<text x="310" y="669" font-family="Inter, -apple-system, Segoe UI, Roboto, sans-serif" font-size="10.5" font-weight="400" fill="#D8D8D8" text-anchor="start" dominant-baseline="central" >Expanded</text>
<text x="468" y="669" font-family="Inter, -apple-system, Segoe UI, Roboto, sans-serif" font-size="10.5" font-weight="400" fill="#9A9A9A" text-anchor="end" dominant-baseline="central" >24</text>
<text x="295" y="699" font-family="Inter, -apple-system, Segoe UI, Roboto, sans-serif" font-size="10.5" font-weight="400" fill="#D8D8D8" text-anchor="start" dominant-baseline="central" >MS</text>
<text x="468" y="699" font-family="Inter, -apple-system, Segoe UI, Roboto, sans-serif" font-size="10.5" font-weight="400" fill="#9A9A9A" text-anchor="end" dominant-baseline="central" >2</text>
<text x="310" y="729" font-family="Inter, -apple-system, Segoe UI, Roboto, sans-serif" font-size="10.5" font-weight="400" fill="#D8D8D8" text-anchor="start" dominant-baseline="central" >Brand</text>
<text x="468" y="729" font-family="Inter, -apple-system, Segoe UI, Roboto, sans-serif" font-size="10.5" font-weight="400" fill="#9A9A9A" text-anchor="end" dominant-baseline="central" >2</text>
<text x="280" y="760" font-family="Inter, -apple-system, Segoe UI, Roboto, sans-serif" font-size="10.5" font-weight="400" fill="#D8D8D8" text-anchor="start" dominant-baseline="central" >Font</text>
<text x="468" y="760" font-family="Inter, -apple-system, Segoe UI, Roboto, sans-serif" font-size="10.5" font-weight="400" fill="#9A9A9A" text-anchor="end" dominant-baseline="central" >4</text>
<text x="280" y="790" font-family="Inter, -apple-system, Segoe UI, Roboto, sans-serif" font-size="10.5" font-weight="400" fill="#D8D8D8" text-anchor="start" dominant-baseline="central" >Numbers</text>
<text x="468" y="790" font-family="Inter, -apple-system, Segoe UI, Roboto, sans-serif" font-size="10.5" font-weight="400" fill="#9A9A9A" text-anchor="end" dominant-baseline="central" >43</text>
<text x="295" y="820" font-family="Inter, -apple-system, Segoe UI, Roboto, sans-serif" font-size="10.5" font-weight="400" fill="#D8D8D8" text-anchor="start" dominant-baseline="central" >Layout</text>
<text x="468" y="820" font-family="Inter, -apple-system, Segoe UI, Roboto, sans-serif" font-size="10.5" font-weight="400" fill="#9A9A9A" text-anchor="end" dominant-baseline="central" >17</text>
<text x="310" y="850" font-family="Inter, -apple-system, Segoe UI, Roboto, sans-serif" font-size="10.5" font-weight="400" fill="#D8D8D8" text-anchor="start" dominant-baseline="central" >Frame Width</text>
<text x="468" y="850" font-family="Inter, -apple-system, Segoe UI, Roboto, sans-serif" font-size="10.5" font-weight="400" fill="#9A9A9A" text-anchor="end" dominant-baseline="central" >6</text>
<rect x="635" y="146" width="166" height="21" rx="4" fill="#383838"/>
<circle cx="646" cy="155.5" r="4" fill="none" stroke="#9A9A9A" stroke-width="1.1"/><path d="M649.4 158.9L652.5 162.0" stroke="#9A9A9A" stroke-width="1.1" stroke-linecap="round"/>
<text x="658" y="156.5" font-family="Inter, -apple-system, Segoe UI, Roboto, sans-serif" font-size="10.5" font-weight="400" fill="#8A8A8A" text-anchor="start" dominant-baseline="central" >Search</text>
<circle cx="813" cy="156" r="6" fill="none" stroke="#CFCFCF" stroke-width="1.1"/><path d="M810 154h6M811 156.2h4M812.2 158.4h1.6" stroke="#CFCFCF" stroke-width="1" stroke-linecap="round"/>
<path d="M840 159l-2.5 2.5M838 158v4h4M846 153l2.5-2.5M844 150h4.5v4.5M838 162l4-4M848.5 150.5l-4 4" stroke="#CFCFCF" stroke-width="1.1" stroke-linecap="round" fill="none"/>
<path d="M865.5 151.5L874.5 160.5M874.5 151.5L865.5 160.5" stroke="#D0D0D0" stroke-width="1.2" stroke-linecap="round"/>
<text x="500" y="194" font-family="Inter, -apple-system, Segoe UI, Roboto, sans-serif" font-size="10.5" font-weight="600" fill="#F0F0F0" text-anchor="start" dominant-baseline="central" >Name</text>
<text x="690" y="194" font-family="Inter, -apple-system, Segoe UI, Roboto, sans-serif" font-size="10.5" font-weight="600" fill="#F0F0F0" text-anchor="start" dominant-baseline="central" >Value</text>
<line x1="675.5" y1="174" x2="675.5" y2="213" stroke="#3C3C3C" stroke-width="1"/>
<line x1="851.5" y1="174" x2="851.5" y2="213" stroke="#3C3C3C" stroke-width="1"/>
<path d="M865 194H875M870 189V199" stroke="#D0D0D0" stroke-width="1.2" stroke-linecap="round"/>
<line x1="484" y1="213.5" x2="888" y2="213.5" stroke="#3C3C3C" stroke-width="1"/>
<rect class="lrow" x="485" y="578.9" width="403" height="37.8" fill="#34405C"/>
<text x="500" y="248" font-family="Inter, -apple-system, Segoe UI, Roboto, sans-serif" font-size="10.5" fill="#A8A8A8" dominant-baseline="central">Color / FDX / <tspan fill="#F0F0F0" font-weight="600">Brand</tspan></text>
<line x1="484" y1="268.0" x2="888" y2="268.0" stroke="#3C3C3C" stroke-width="1"/>
<path d="M507 280.4a6.5 6.5 0 1 0 0 13c1.2 0 1.6-.9 1.2-1.8-.5-1 .1-2 1.3-2h1.6a2.4 2.4 0 0 0 2.4-2.4c0-3.8-2.9-6.8-6.5-6.8z" fill="none" stroke="#CFCFCF" stroke-width="1.1"/>
<circle cx="504" cy="285.9" r="0.9" fill="#CFCFCF"/>
<circle cx="506" cy="283.29999999999995" r="0.9" fill="#CFCFCF"/>
<circle cx="509.2" cy="283.9" r="0.9" fill="#CFCFCF"/>
<text x="526" y="286.9" font-family="Inter, -apple-system, Segoe UI, Roboto, sans-serif" font-size="10.5" font-weight="400" fill="#E2E2E2" text-anchor="start" dominant-baseline="central" >Navy</text>
<rect x="691" y="279.9" width="14" height="14" rx="2" fill="#061135" stroke="#FFFFFF" stroke-opacity=".12"/>
<text x="710" y="286.9" font-family="Inter, -apple-system, Segoe UI, Roboto, sans-serif" font-size="10" font-weight="400" fill="#E2E2E2" text-anchor="start" dominant-baseline="central" >061135</text>
<line x1="484" y1="306.8" x2="888" y2="306.8" stroke="#3C3C3C" stroke-width="1"/>
<path d="M507 319.2a6.5 6.5 0 1 0 0 13c1.2 0 1.6-.9 1.2-1.8-.5-1 .1-2 1.3-2h1.6a2.4 2.4 0 0 0 2.4-2.4c0-3.8-2.9-6.8-6.5-6.8z" fill="none" stroke="#CFCFCF" stroke-width="1.1"/>
<circle cx="504" cy="324.7" r="0.9" fill="#CFCFCF"/>
<circle cx="506" cy="322.09999999999997" r="0.9" fill="#CFCFCF"/>
<circle cx="509.2" cy="322.7" r="0.9" fill="#CFCFCF"/>
<text x="526" y="325.7" font-family="Inter, -apple-system, Segoe UI, Roboto, sans-serif" font-size="10.5" font-weight="400" fill="#E2E2E2" text-anchor="start" dominant-baseline="central" >Shadow</text>
<rect x="691" y="318.7" width="14" height="14" rx="2" fill="#0E1D4C" stroke="#FFFFFF" stroke-opacity=".12"/>
<text x="710" y="325.7" font-family="Inter, -apple-system, Segoe UI, Roboto, sans-serif" font-size="10" font-weight="400" fill="#E2E2E2" text-anchor="start" dominant-baseline="central" >0E1D4C</text>
<line x1="484" y1="345.6" x2="888" y2="345.6" stroke="#3C3C3C" stroke-width="1"/>
<path d="M507 358.0a6.5 6.5 0 1 0 0 13c1.2 0 1.6-.9 1.2-1.8-.5-1 .1-2 1.3-2h1.6a2.4 2.4 0 0 0 2.4-2.4c0-3.8-2.9-6.8-6.5-6.8z" fill="none" stroke="#CFCFCF" stroke-width="1.1"/>
<circle cx="504" cy="363.5" r="0.9" fill="#CFCFCF"/>
<circle cx="506" cy="360.9" r="0.9" fill="#CFCFCF"/>
<circle cx="509.2" cy="361.5" r="0.9" fill="#CFCFCF"/>
<text x="526" y="364.5" font-family="Inter, -apple-system, Segoe UI, Roboto, sans-serif" font-size="10.5" font-weight="400" fill="#E2E2E2" text-anchor="start" dominant-baseline="central" >Slate</text>
<rect x="691" y="357.5" width="14" height="14" rx="2" fill="#173D96" stroke="#FFFFFF" stroke-opacity=".12"/>
<text x="710" y="364.5" font-family="Inter, -apple-system, Segoe UI, Roboto, sans-serif" font-size="10" font-weight="400" fill="#E2E2E2" text-anchor="start" dominant-baseline="central" >173D96</text>
<line x1="484" y1="384.40000000000003" x2="888" y2="384.40000000000003" stroke="#3C3C3C" stroke-width="1"/>
<path d="M507 396.79999999999995a6.5 6.5 0 1 0 0 13c1.2 0 1.6-.9 1.2-1.8-.5-1 .1-2 1.3-2h1.6a2.4 2.4 0 0 0 2.4-2.4c0-3.8-2.9-6.8-6.5-6.8z" fill="none" stroke="#CFCFCF" stroke-width="1.1"/>
<circle cx="504" cy="402.29999999999995" r="0.9" fill="#CFCFCF"/>
<circle cx="506" cy="399.69999999999993" r="0.9" fill="#CFCFCF"/>
<circle cx="509.2" cy="400.29999999999995" r="0.9" fill="#CFCFCF"/>
<text x="526" y="403.29999999999995" font-family="Inter, -apple-system, Segoe UI, Roboto, sans-serif" font-size="10.5" font-weight="400" fill="#E2E2E2" text-anchor="start" dominant-baseline="central" >Cobalt</text>
<rect x="691" y="396.29999999999995" width="14" height="14" rx="2" fill="#274CFF" stroke="#FFFFFF" stroke-opacity=".12"/>
<text x="710" y="403.29999999999995" font-family="Inter, -apple-system, Segoe UI, Roboto, sans-serif" font-size="10" font-weight="400" fill="#E2E2E2" text-anchor="start" dominant-baseline="central" >274CFF</text>
<line x1="484" y1="423.2" x2="888" y2="423.2" stroke="#3C3C3C" stroke-width="1"/>
<path d="M507 435.59999999999997a6.5 6.5 0 1 0 0 13c1.2 0 1.6-.9 1.2-1.8-.5-1 .1-2 1.3-2h1.6a2.4 2.4 0 0 0 2.4-2.4c0-3.8-2.9-6.8-6.5-6.8z" fill="none" stroke="#CFCFCF" stroke-width="1.1"/>
<circle cx="504" cy="441.09999999999997" r="0.9" fill="#CFCFCF"/>
<circle cx="506" cy="438.49999999999994" r="0.9" fill="#CFCFCF"/>
<circle cx="509.2" cy="439.09999999999997" r="0.9" fill="#CFCFCF"/>
<text x="526" y="442.09999999999997" font-family="Inter, -apple-system, Segoe UI, Roboto, sans-serif" font-size="10.5" font-weight="400" fill="#E2E2E2" text-anchor="start" dominant-baseline="central" >Sky</text>
<rect x="691" y="435.09999999999997" width="14" height="14" rx="2" fill="#899EFF" stroke="#FFFFFF" stroke-opacity=".12"/>
<text x="710" y="442.09999999999997" font-family="Inter, -apple-system, Segoe UI, Roboto, sans-serif" font-size="10" font-weight="400" fill="#E2E2E2" text-anchor="start" dominant-baseline="central" >899EFF</text>
<line x1="484" y1="462.0" x2="888" y2="462.0" stroke="#3C3C3C" stroke-width="1"/>
<path d="M507 474.4a6.5 6.5 0 1 0 0 13c1.2 0 1.6-.9 1.2-1.8-.5-1 .1-2 1.3-2h1.6a2.4 2.4 0 0 0 2.4-2.4c0-3.8-2.9-6.8-6.5-6.8z" fill="none" stroke="#CFCFCF" stroke-width="1.1"/>
<circle cx="504" cy="479.9" r="0.9" fill="#CFCFCF"/>
<circle cx="506" cy="477.29999999999995" r="0.9" fill="#CFCFCF"/>
<circle cx="509.2" cy="477.9" r="0.9" fill="#CFCFCF"/>
<text x="526" y="480.9" font-family="Inter, -apple-system, Segoe UI, Roboto, sans-serif" font-size="10.5" font-weight="400" fill="#E2E2E2" text-anchor="start" dominant-baseline="central" >Ice</text>
<rect x="691" y="473.9" width="14" height="14" rx="2" fill="#D4DBFF" stroke="#FFFFFF" stroke-opacity=".12"/>
<text x="710" y="480.9" font-family="Inter, -apple-system, Segoe UI, Roboto, sans-serif" font-size="10" font-weight="400" fill="#E2E2E2" text-anchor="start" dominant-baseline="central" >D4DBFF</text>
<line x1="484" y1="500.8" x2="888" y2="500.8" stroke="#3C3C3C" stroke-width="1"/>
<path d="M507 513.1999999999999a6.5 6.5 0 1 0 0 13c1.2 0 1.6-.9 1.2-1.8-.5-1 .1-2 1.3-2h1.6a2.4 2.4 0 0 0 2.4-2.4c0-3.8-2.9-6.8-6.5-6.8z" fill="none" stroke="#CFCFCF" stroke-width="1.1"/>
<circle cx="504" cy="518.6999999999999" r="0.9" fill="#CFCFCF"/>
<circle cx="506" cy="516.0999999999999" r="0.9" fill="#CFCFCF"/>
<circle cx="509.2" cy="516.6999999999999" r="0.9" fill="#CFCFCF"/>
<text x="526" y="519.6999999999999" font-family="Inter, -apple-system, Segoe UI, Roboto, sans-serif" font-size="10.5" font-weight="400" fill="#E2E2E2" text-anchor="start" dominant-baseline="central" >Frost</text>
<rect x="691" y="512.6999999999999" width="14" height="14" rx="2" fill="#EBEEFF" stroke="#FFFFFF" stroke-opacity=".12"/>
<text x="710" y="519.6999999999999" font-family="Inter, -apple-system, Segoe UI, Roboto, sans-serif" font-size="10" font-weight="400" fill="#E2E2E2" text-anchor="start" dominant-baseline="central" >EBEEFF</text>
<line x1="484" y1="539.5999999999999" x2="888" y2="539.5999999999999" stroke="#3C3C3C" stroke-width="1"/>
<path d="M507 551.9999999999999a6.5 6.5 0 1 0 0 13c1.2 0 1.6-.9 1.2-1.8-.5-1 .1-2 1.3-2h1.6a2.4 2.4 0 0 0 2.4-2.4c0-3.8-2.9-6.8-6.5-6.8z" fill="none" stroke="#CFCFCF" stroke-width="1.1"/>
<circle cx="504" cy="557.4999999999999" r="0.9" fill="#CFCFCF"/>
<circle cx="506" cy="554.8999999999999" r="0.9" fill="#CFCFCF"/>
<circle cx="509.2" cy="555.4999999999999" r="0.9" fill="#CFCFCF"/>
<text x="526" y="558.4999999999999" font-family="Inter, -apple-system, Segoe UI, Roboto, sans-serif" font-size="10.5" font-weight="400" fill="#E2E2E2" text-anchor="start" dominant-baseline="central" >Stone</text>
<rect x="691" y="551.4999999999999" width="14" height="14" rx="2" fill="#F7F3EB" stroke="#FFFFFF" stroke-opacity=".12"/>
<text x="710" y="558.4999999999999" font-family="Inter, -apple-system, Segoe UI, Roboto, sans-serif" font-size="10" font-weight="400" fill="#E2E2E2" text-anchor="start" dominant-baseline="central" >F7F3EB</text>
<line x1="484" y1="578.3999999999999" x2="888" y2="578.3999999999999" stroke="#3C3C3C" stroke-width="1"/>
<path d="M507 590.8a6.5 6.5 0 1 0 0 13c1.2 0 1.6-.9 1.2-1.8-.5-1 .1-2 1.3-2h1.6a2.4 2.4 0 0 0 2.4-2.4c0-3.8-2.9-6.8-6.5-6.8z" fill="none" stroke="#CFCFCF" stroke-width="1.1"/>
<circle cx="504" cy="596.3" r="0.9" fill="#CFCFCF"/>
<circle cx="506" cy="593.6999999999999" r="0.9" fill="#CFCFCF"/>
<circle cx="509.2" cy="594.3" r="0.9" fill="#CFCFCF"/>
<text x="526" y="597.3" font-family="Inter, -apple-system, Segoe UI, Roboto, sans-serif" font-size="10.5" font-weight="400" fill="#E2E2E2" text-anchor="start" dominant-baseline="central" >Peach</text>
<rect x="691" y="590.3" width="14" height="14" rx="2" fill="#FDB69A" stroke="#FFFFFF" stroke-opacity=".12"/>
<text x="710" y="597.3" font-family="Inter, -apple-system, Segoe UI, Roboto, sans-serif" font-size="10" font-weight="400" fill="#E2E2E2" text-anchor="start" dominant-baseline="central" >FDB69A</text>
<line x1="484" y1="617.1999999999999" x2="888" y2="617.1999999999999" stroke="#3C3C3C" stroke-width="1"/>
<path d="M507 629.6a6.5 6.5 0 1 0 0 13c1.2 0 1.6-.9 1.2-1.8-.5-1 .1-2 1.3-2h1.6a2.4 2.4 0 0 0 2.4-2.4c0-3.8-2.9-6.8-6.5-6.8z" fill="none" stroke="#CFCFCF" stroke-width="1.1"/>
<circle cx="504" cy="635.1" r="0.9" fill="#CFCFCF"/>
<circle cx="506" cy="632.5" r="0.9" fill="#CFCFCF"/>
<circle cx="509.2" cy="633.1" r="0.9" fill="#CFCFCF"/>
<text x="526" y="636.1" font-family="Inter, -apple-system, Segoe UI, Roboto, sans-serif" font-size="10.5" font-weight="400" fill="#E2E2E2" text-anchor="start" dominant-baseline="central" >Mint</text>
<rect x="691" y="629.1" width="14" height="14" rx="2" fill="#2CCA9A" stroke="#FFFFFF" stroke-opacity=".12"/>
<text x="710" y="636.1" font-family="Inter, -apple-system, Segoe UI, Roboto, sans-serif" font-size="10" font-weight="400" fill="#E2E2E2" text-anchor="start" dominant-baseline="central" >2CCA9A</text>
<line x1="484" y1="656.0" x2="888" y2="656.0" stroke="#3C3C3C" stroke-width="1"/>
<line x1="675.5" y1="267.5" x2="675.5" y2="655.5" stroke="#3C3C3C" stroke-width="1"/>
<line x1="851.5" y1="267.5" x2="851.5" y2="655.5" stroke="#3C3C3C" stroke-width="1"/>
<text x="500" y="690" font-family="Inter, -apple-system, Segoe UI, Roboto, sans-serif" font-size="10.5" fill="#A8A8A8" dominant-baseline="central">Color / FDX / <tspan fill="#F0F0F0" font-weight="600">Expanded</tspan></text>
<line x1="484" y1="710.2" x2="888" y2="710.2" stroke="#3C3C3C" stroke-width="1"/>
<path d="M507 722.6a6.5 6.5 0 1 0 0 13c1.2 0 1.6-.9 1.2-1.8-.5-1 .1-2 1.3-2h1.6a2.4 2.4 0 0 0 2.4-2.4c0-3.8-2.9-6.8-6.5-6.8z" fill="none" stroke="#CFCFCF" stroke-width="1.1"/>
<circle cx="504" cy="728.1" r="0.9" fill="#CFCFCF"/>
<circle cx="506" cy="725.5" r="0.9" fill="#CFCFCF"/>
<circle cx="509.2" cy="726.1" r="0.9" fill="#CFCFCF"/>
<text x="526" y="729.1" font-family="Inter, -apple-system, Segoe UI, Roboto, sans-serif" font-size="10.5" font-weight="400" fill="#E2E2E2" text-anchor="start" dominant-baseline="central" >Peach 100</text>
<rect x="691" y="722.1" width="14" height="14" rx="2" fill="#FED3C2" stroke="#FFFFFF" stroke-opacity=".12"/>
<text x="710" y="729.1" font-family="Inter, -apple-system, Segoe UI, Roboto, sans-serif" font-size="10" font-weight="400" fill="#E2E2E2" text-anchor="start" dominant-baseline="central" >FED3C2</text>
<line x1="484" y1="749.0" x2="888" y2="749.0" stroke="#3C3C3C" stroke-width="1"/>
<path d="M507 761.4a6.5 6.5 0 1 0 0 13c1.2 0 1.6-.9 1.2-1.8-.5-1 .1-2 1.3-2h1.6a2.4 2.4 0 0 0 2.4-2.4c0-3.8-2.9-6.8-6.5-6.8z" fill="none" stroke="#CFCFCF" stroke-width="1.1"/>
<circle cx="504" cy="766.9" r="0.9" fill="#CFCFCF"/>
<circle cx="506" cy="764.3" r="0.9" fill="#CFCFCF"/>
<circle cx="509.2" cy="764.9" r="0.9" fill="#CFCFCF"/>
<text x="526" y="767.9" font-family="Inter, -apple-system, Segoe UI, Roboto, sans-serif" font-size="10.5" font-weight="400" fill="#E2E2E2" text-anchor="start" dominant-baseline="central" >Peach 200</text>
<rect x="691" y="760.9" width="14" height="14" rx="2" fill="#FDB69A" stroke="#FFFFFF" stroke-opacity=".12"/>
<text x="710" y="767.9" font-family="Inter, -apple-system, Segoe UI, Roboto, sans-serif" font-size="10" font-weight="400" fill="#E2E2E2" text-anchor="start" dominant-baseline="central" >FDB69A</text>
<line x1="484" y1="787.8" x2="888" y2="787.8" stroke="#3C3C3C" stroke-width="1"/>
<path d="M507 800.2a6.5 6.5 0 1 0 0 13c1.2 0 1.6-.9 1.2-1.8-.5-1 .1-2 1.3-2h1.6a2.4 2.4 0 0 0 2.4-2.4c0-3.8-2.9-6.8-6.5-6.8z" fill="none" stroke="#CFCFCF" stroke-width="1.1"/>
<circle cx="504" cy="805.7" r="0.9" fill="#CFCFCF"/>
<circle cx="506" cy="803.1" r="0.9" fill="#CFCFCF"/>
<circle cx="509.2" cy="803.7" r="0.9" fill="#CFCFCF"/>
<text x="526" y="806.7" font-family="Inter, -apple-system, Segoe UI, Roboto, sans-serif" font-size="10.5" font-weight="400" fill="#E2E2E2" text-anchor="start" dominant-baseline="central" >Peach 300</text>
<rect x="691" y="799.7" width="14" height="14" rx="2" fill="#F1936E" stroke="#FFFFFF" stroke-opacity=".12"/>
<text x="710" y="806.7" font-family="Inter, -apple-system, Segoe UI, Roboto, sans-serif" font-size="10" font-weight="400" fill="#E2E2E2" text-anchor="start" dominant-baseline="central" >F1936E</text>
<line x1="484" y1="826.6" x2="888" y2="826.6" stroke="#3C3C3C" stroke-width="1"/>
<path d="M507 839.0a6.5 6.5 0 1 0 0 13c1.2 0 1.6-.9 1.2-1.8-.5-1 .1-2 1.3-2h1.6a2.4 2.4 0 0 0 2.4-2.4c0-3.8-2.9-6.8-6.5-6.8z" fill="none" stroke="#CFCFCF" stroke-width="1.1"/>
<circle cx="504" cy="844.5" r="0.9" fill="#CFCFCF"/>
<circle cx="506" cy="841.9" r="0.9" fill="#CFCFCF"/>
<circle cx="509.2" cy="842.5" r="0.9" fill="#CFCFCF"/>
<text x="526" y="845.5" font-family="Inter, -apple-system, Segoe UI, Roboto, sans-serif" font-size="10.5" font-weight="400" fill="#E2E2E2" text-anchor="start" dominant-baseline="central" >Peach 400</text>
<rect x="691" y="838.5" width="14" height="14" rx="2" fill="#893818" stroke="#FFFFFF" stroke-opacity=".12"/>
<text x="710" y="845.5" font-family="Inter, -apple-system, Segoe UI, Roboto, sans-serif" font-size="10" font-weight="400" fill="#E2E2E2" text-anchor="start" dominant-baseline="central" >893818</text>
<line x1="484" y1="865.4" x2="888" y2="865.4" stroke="#3C3C3C" stroke-width="1"/>
<line x1="675.5" y1="709.7" x2="675.5" y2="864.9000000000001" stroke="#3C3C3C" stroke-width="1"/>
<line x1="851.5" y1="709.7" x2="851.5" y2="864.9000000000001" stroke="#3C3C3C" stroke-width="1"/>
<rect class="ring" x="689" y="588.3" width="18" height="18" rx="4" fill="none" stroke="#FFFFFF" stroke-opacity=".85" stroke-width="1.5"/>
</g>
<rect x="1022" y="221" width="316" height="558" rx="14" fill="#1E1E1E"/>
<g clip-path="url(#R)">
<rect x="1024" y="223" width="312" height="554" fill="#2C2C2C"/>
<text x="1046" y="248.5" font-family="Inter, -apple-system, Segoe UI, Roboto, sans-serif" font-size="14" font-weight="400" fill="#A8A8A8" text-anchor="start" dominant-baseline="central" >Custom</text>
<rect x="1115" y="234" width="81" height="29" rx="6" fill="#3B3B3B"/>
<text x="1155.5" y="248.5" font-family="Inter, -apple-system, Segoe UI, Roboto, sans-serif" font-size="14" font-weight="600" fill="#F5F5F5" text-anchor="middle" dominant-baseline="central" >Libraries</text>
<path d="M1266.5 248.5H1281.5M1274 241.0V256.0" stroke="#E0E0E0" stroke-width="1.6" stroke-linecap="round"/>
<path d="M1303.5 242.0L1316.5 255.0M1316.5 242.0L1303.5 255.0" stroke="#E0E0E0" stroke-width="1.6" stroke-linecap="round"/>
<line x1="1024" y1="274.5" x2="1336" y2="274.5" stroke="#404040" stroke-width="1"/>
<circle cx="1054" cy="299" r="5.5" fill="none" stroke="#E0E0E0" stroke-width="1.6"/><path d="M1058.3 303.3L1062.0 307.0" stroke="#E0E0E0" stroke-width="1.6" stroke-linecap="round"/>
<rect class="cur" x="1076" y="291" width="1.3" height="18" fill="#E0E0E0"/>
<text x="1077" y="300.5" font-family="Inter, -apple-system, Segoe UI, Roboto, sans-serif" font-size="14" font-weight="400" fill="#8A8A8A" text-anchor="start" dominant-baseline="central" >Search</text>
<line x1="1024" y1="327.5" x2="1336" y2="327.5" stroke="#404040" stroke-width="1"/>
<rect x="1035.5" y="339.5" width="119" height="30" rx="4" fill="none" stroke="#555555"/>
<text x="1047" y="354.5" font-family="Inter, -apple-system, Segoe UI, Roboto, sans-serif" font-size="14" font-weight="400" fill="#EDEDED" text-anchor="start" dominant-baseline="central" >All libraries</text>
<path d="M1135.5 353l2.5 2.5 2.5-2.5" fill="none" stroke="#E0E0E0" stroke-width="1.3" stroke-linecap="round" stroke-linejoin="round"/>
<rect x="1297" y="346" width="6" height="6" rx="1" fill="none" stroke="#E0E0E0" stroke-width="1.3"/>
<rect x="1307" y="346" width="6" height="6" rx="1" fill="none" stroke="#E0E0E0" stroke-width="1.3"/>
<rect x="1297" y="356" width="6" height="6" rx="1" fill="none" stroke="#E0E0E0" stroke-width="1.3"/>
<rect x="1307" y="356" width="6" height="6" rx="1" fill="none" stroke="#E0E0E0" stroke-width="1.3"/>
<line x1="1024" y1="381.5" x2="1336" y2="381.5" stroke="#404040" stroke-width="1"/>
<g clip-path="url(#RL)">
<rect class="sel" x="1025" y="570" width="311" height="41" fill="#4A5A80"/>
<rect x="1050" y="371" width="22" height="22" rx="4" fill="#274CFF"/>
<text x="1087" y="382.5" font-family="Inter, -apple-system, Segoe UI, Roboto, sans-serif" font-size="14.5" font-weight="400" fill="#F2F2F2" text-anchor="start" dominant-baseline="central" >Cobalt</text>
<rect x="1050" y="413" width="22" height="22" rx="4" fill="#899EFF"/>
<text x="1087" y="424.5" font-family="Inter, -apple-system, Segoe UI, Roboto, sans-serif" font-size="14.5" font-weight="400" fill="#F2F2F2" text-anchor="start" dominant-baseline="central" >Sky</text>
<rect x="1050" y="455" width="22" height="22" rx="4" fill="#D4DBFF"/>
<text x="1087" y="466.5" font-family="Inter, -apple-system, Segoe UI, Roboto, sans-serif" font-size="14.5" font-weight="400" fill="#F2F2F2" text-anchor="start" dominant-baseline="central" >Ice</text>
<rect x="1050" y="496" width="22" height="22" rx="4" fill="#EBEEFF"/>
<text x="1087" y="507.5" font-family="Inter, -apple-system, Segoe UI, Roboto, sans-serif" font-size="14.5" font-weight="400" fill="#F2F2F2" text-anchor="start" dominant-baseline="central" >Frost</text>
<rect x="1050" y="538" width="22" height="22" rx="4" fill="#F7F3EB"/>
<text x="1087" y="549.5" font-family="Inter, -apple-system, Segoe UI, Roboto, sans-serif" font-size="14.5" font-weight="400" fill="#F2F2F2" text-anchor="start" dominant-baseline="central" >Stone</text>
<rect x="1050" y="579" width="22" height="22" rx="4" fill="#FDB69A"/>
<text x="1087" y="590.5" font-family="Inter, -apple-system, Segoe UI, Roboto, sans-serif" font-size="14.5" font-weight="400" fill="#F2F2F2" text-anchor="start" dominant-baseline="central" >Peach</text>
<rect x="1050" y="621" width="22" height="22" rx="4" fill="#2CCA9A"/>
<text x="1087" y="632.5" font-family="Inter, -apple-system, Segoe UI, Roboto, sans-serif" font-size="14.5" font-weight="400" fill="#F2F2F2" text-anchor="start" dominant-baseline="central" >Mint</text>
<text x="1045" y="674" font-family="Inter, -apple-system, Segoe UI, Roboto, sans-serif" font-size="14.5" font-weight="400" fill="#EDEDED" text-anchor="start" dominant-baseline="central" >Color/FDX/Expanded</text>
<rect x="1050" y="704" width="22" height="22" rx="4" fill="#FED3C2"/>
<text x="1087" y="715.5" font-family="Inter, -apple-system, Segoe UI, Roboto, sans-serif" font-size="14.5" font-weight="400" fill="#F2F2F2" text-anchor="start" dominant-baseline="central" >Peach 100</text>
<rect x="1050" y="746" width="22" height="22" rx="4" fill="#FDB69A"/>
<text x="1087" y="757.5" font-family="Inter, -apple-system, Segoe UI, Roboto, sans-serif" font-size="14.5" font-weight="400" fill="#F2F2F2" text-anchor="start" dominant-baseline="central" >Peach 200</text>
<rect class="ring" x="1046.5" y="575.5" width="29" height="29" rx="6.5" fill="none" stroke="#FFFFFF" stroke-opacity=".85" stroke-width="1.5"/>
</g></g>
</svg>