<svg xmlns="http://www.w3.org/2000/svg" width="1600" height="1000" viewBox="0 0 1600 1000" role="img">
<style>
.ring{animation:ring 16s cubic-bezier(.4,0,.2,1) infinite}
.acc{animation:acc 16s ease-in-out infinite}
@keyframes ring{0%,21%{transform:translateX(0)}25%,46%{transform:translateX(196px)}50%,71%{transform:translateX(392px)}75%,96%{transform:translateX(588px)}100%{transform:translateX(0)}}
@keyframes acc{0%,21%{fill:#2F6BE3}25%,46%{fill:#5B4BE0}50%,71%{fill:#2E5BFF}75%,96%{fill:#2149D3}100%{fill:#2F6BE3}}
@media (prefers-reduced-motion:reduce){.ring,.acc{animation:none}.acc{fill:#5B4BE0}}
</style>
<rect x="0" y="0" width="1600" height="1000" fill="#DDE1E8"/>
<defs><clipPath id="doc"><rect x="380" y="180" width="840" height="820" rx="14"/></clipPath></defs>
<g clip-path="url(#doc)">
<rect x="380" y="180" width="840" height="820" fill="#FFFFFF"/>
<rect x="380" y="180" width="840" height="170" fill="#F2F0EB"/>
<text x="414" y="243" font-family="Inter, -apple-system, Segoe UI, Roboto, sans-serif" font-size="11.5" font-weight="400" fill="#4A5160" text-anchor="start" dominant-baseline="central">Commerce Multi-brand Design System</text>
<text x="414" y="279" font-family="Inter, -apple-system, Segoe UI, Roboto, sans-serif" font-size="31" font-weight="600" fill="#101828" text-anchor="start" dominant-baseline="central" letter-spacing="-0.4">Library Updates</text>
<line x1="380" y1="350.5" x2="1220" y2="350.5" stroke="#DCDAD4" stroke-width="1"/>
<text x="414" y="400" font-family="Inter, -apple-system, Segoe UI, Roboto, sans-serif" font-size="16.5" font-weight="600" fill="#101828" text-anchor="start" dominant-baseline="central">Applying text styles</text>
<text x="414" y="450" font-family="Inter, -apple-system, Segoe UI, Roboto, sans-serif" font-size="12.5" font-weight="400" fill="#2A3240" text-anchor="start" dominant-baseline="central">This file uses a single shared set of text styles driven by brand tokens. Unlike previous brand files where each brand had its</text>
<text x="414" y="470" font-family="Inter, -apple-system, Segoe UI, Roboto, sans-serif" font-size="12.5" font-weight="400" fill="#2A3240" text-anchor="start" dominant-baseline="central">own separate text styles, all Display, Heading, Type, and Bullet styles now live in one file, and they update automatically</text>
<text x="414" y="490" font-family="Inter, -apple-system, Segoe UI, Roboto, sans-serif" font-size="12.5" font-weight="400" fill="#2A3240" text-anchor="start" dominant-baseline="central">based on the Brand mode applied to the parent frame.</text>
<text x="430" y="536.0" font-family="Inter, -apple-system, Segoe UI, Roboto, sans-serif" font-size="11.5" font-weight="400" fill="#4A5160" text-anchor="end" dominant-baseline="central">1.</text>
<text x="437" y="536.0" font-family="Inter, -apple-system, Segoe UI, Roboto, sans-serif" font-size="11.5" font-weight="400" fill="#2A3240" text-anchor="start" dominant-baseline="central">Set the Brand mode on your parent frame (CMRC, BIGC, or FDX)</text>
<text x="430" y="558.5" font-family="Inter, -apple-system, Segoe UI, Roboto, sans-serif" font-size="11.5" font-weight="400" fill="#4A5160" text-anchor="end" dominant-baseline="central">2.</text>
<text x="437" y="558.5" font-family="Inter, -apple-system, Segoe UI, Roboto, sans-serif" font-size="11.5" font-weight="400" fill="#2A3240" text-anchor="start" dominant-baseline="central">Apply any shared text style, typography will reflect the correct brand automatically</text>
<text x="430" y="581.0" font-family="Inter, -apple-system, Segoe UI, Roboto, sans-serif" font-size="11.5" font-weight="400" fill="#4A5160" text-anchor="end" dominant-baseline="central">3.</text>
<text x="437" y="581.0" font-family="Inter, -apple-system, Segoe UI, Roboto, sans-serif" font-size="11.5" font-weight="400" fill="#2A3240" text-anchor="start" dominant-baseline="central">For type color, select directly from Brand or primitive tokens in the color picker</text>
<text x="430" y="603.5" font-family="Inter, -apple-system, Segoe UI, Roboto, sans-serif" font-size="11.5" font-weight="400" fill="#4A5160" text-anchor="end" dominant-baseline="central">4.</text>
<text x="437" y="603.5" font-family="Inter, -apple-system, Segoe UI, Roboto, sans-serif" font-size="11.5" font-weight="400" fill="#2A3240" text-anchor="start" dominant-baseline="central">Some styles are unique to individual brands and will not update automatically. These live below the shared Headings and Type styles.</text>
<rect x="410" y="641" width="786" height="133" rx="6" fill="#F7F6F3"/>
<rect x="415" y="645" width="182" height="125" rx="5" fill="#FFFFFF" stroke="#E6E4DE" stroke-width="1"/>
<text x="425" y="658" font-family="Inter, -apple-system, Segoe UI, Roboto, sans-serif" font-size="9.5" font-weight="600" fill="#4A5160" text-anchor="start" dominant-baseline="central">1</text>
<rect x="429" y="672" width="154" height="86" rx="3" fill="#111418"/>
<rect x="433" y="676" width="104" height="78" rx="2" fill="#F4F3F0"/>
<text x="439" y="690" font-family="Inter, -apple-system, Segoe UI, Roboto, sans-serif" font-size="6.6" font-weight="600" fill="#1B2430" text-anchor="start" dominant-baseline="central">Ut aperiam aliquid et</text>
<text x="439" y="699" font-family="Inter, -apple-system, Segoe UI, Roboto, sans-serif" font-size="6.6" font-weight="600" fill="#1B2430" text-anchor="start" dominant-baseline="central">dolorum labore eos</text>
<rect x="439" y="708" width="88" height="2.2" rx="1" fill="#B9BEC7"/>
<rect x="439" y="714" width="88" height="2.2" rx="1" fill="#B9BEC7"/>
<rect x="439" y="720" width="88" height="2.2" rx="1" fill="#B9BEC7"/>
<rect x="439" y="726" width="88" height="2.2" rx="1" fill="#B9BEC7"/>
<rect x="439" y="732" width="70" height="2.2" rx="1" fill="#B9BEC7"/>
<rect x="439" y="742" width="34" height="6" rx="1.6" fill="#2F6BE3" class="acc"/>
<rect x="543" y="678" width="34" height="5" rx="1.4" fill="#2A2E35"/>
<rect x="543" y="686" width="34" height="5" rx="1.4" fill="#2A2E35"/>
<rect x="543" y="694" width="34" height="5" rx="1.4" fill="#2A2E35"/>
<rect x="543" y="702" width="34" height="5" rx="1.4" fill="#2A2E35"/>
<rect x="543" y="710" width="34" height="5" rx="1.4" fill="#2A2E35"/>
<rect x="543" y="718" width="34" height="5" rx="1.4" fill="#2A2E35"/>
<rect x="543" y="726" width="34" height="5" rx="1.4" fill="#2A2E35"/>
<rect x="543" y="734" width="34" height="5" rx="1.4" fill="#2A2E35"/>
<rect x="543" y="742" width="34" height="5" rx="1.4" fill="#2A2E35"/>
<rect x="543" y="678" width="34" height="5" rx="1.4" fill="#2F6BE3" class="acc"/>
<rect x="611" y="645" width="182" height="125" rx="5" fill="#FFFFFF" stroke="#E6E4DE" stroke-width="1"/>
<text x="621" y="658" font-family="Inter, -apple-system, Segoe UI, Roboto, sans-serif" font-size="9.5" font-weight="600" fill="#4A5160" text-anchor="start" dominant-baseline="central">2</text>
<rect x="625" y="672" width="154" height="86" rx="3" fill="#111418"/>
<rect x="629" y="676" width="104" height="78" rx="2" fill="#F4F3F0"/>
<text x="635" y="690" font-family="Inter, -apple-system, Segoe UI, Roboto, sans-serif" font-size="6.6" font-weight="600" fill="#1B2430" text-anchor="start" dominant-baseline="central">Ut aperiam aliquid et</text>
<text x="635" y="699" font-family="Inter, -apple-system, Segoe UI, Roboto, sans-serif" font-size="6.6" font-weight="600" fill="#1B2430" text-anchor="start" dominant-baseline="central">dolorum labore eos</text>
<rect x="635" y="708" width="88" height="2.2" rx="1" fill="#B9BEC7"/>
<rect x="635" y="714" width="88" height="2.2" rx="1" fill="#B9BEC7"/>
<rect x="635" y="720" width="88" height="2.2" rx="1" fill="#B9BEC7"/>
<rect x="635" y="726" width="88" height="2.2" rx="1" fill="#B9BEC7"/>
<rect x="635" y="732" width="70" height="2.2" rx="1" fill="#B9BEC7"/>
<rect x="635" y="742" width="34" height="6" rx="1.6" fill="#2F6BE3" class="acc"/>
<rect x="739" y="678" width="34" height="5" rx="1.4" fill="#2A2E35"/>
<rect x="739" y="686" width="34" height="5" rx="1.4" fill="#2A2E35"/>
<rect x="739" y="694" width="34" height="5" rx="1.4" fill="#2A2E35"/>
<rect x="739" y="702" width="34" height="5" rx="1.4" fill="#2A2E35"/>
<rect x="739" y="710" width="34" height="5" rx="1.4" fill="#2A2E35"/>
<rect x="739" y="718" width="34" height="5" rx="1.4" fill="#2A2E35"/>
<rect x="739" y="726" width="34" height="5" rx="1.4" fill="#2A2E35"/>
<rect x="739" y="734" width="34" height="5" rx="1.4" fill="#2A2E35"/>
<rect x="739" y="742" width="34" height="5" rx="1.4" fill="#2A2E35"/>
<rect x="739" y="686" width="34" height="5" rx="1.4" fill="#2F6BE3" class="acc"/>
<rect x="807" y="645" width="182" height="125" rx="5" fill="#FFFFFF" stroke="#E6E4DE" stroke-width="1"/>
<text x="817" y="658" font-family="Inter, -apple-system, Segoe UI, Roboto, sans-serif" font-size="9.5" font-weight="600" fill="#4A5160" text-anchor="start" dominant-baseline="central">3</text>
<rect x="821" y="672" width="154" height="86" rx="3" fill="#111418"/>
<rect x="825" y="676" width="104" height="78" rx="2" fill="#F4F3F0"/>
<text x="831" y="690" font-family="Inter, -apple-system, Segoe UI, Roboto, sans-serif" font-size="6.6" font-weight="600" fill="#1B2430" text-anchor="start" dominant-baseline="central">Ut aperiam aliquid et</text>
<text x="831" y="699" font-family="Inter, -apple-system, Segoe UI, Roboto, sans-serif" font-size="6.6" font-weight="600" fill="#1B2430" text-anchor="start" dominant-baseline="central">dolorum labore eos</text>
<rect x="831" y="708" width="88" height="2.2" rx="1" fill="#B9BEC7"/>
<rect x="831" y="714" width="88" height="2.2" rx="1" fill="#B9BEC7"/>
<rect x="831" y="720" width="88" height="2.2" rx="1" fill="#B9BEC7"/>
<rect x="831" y="726" width="88" height="2.2" rx="1" fill="#B9BEC7"/>
<rect x="831" y="732" width="70" height="2.2" rx="1" fill="#B9BEC7"/>
<rect x="831" y="742" width="34" height="6" rx="1.6" fill="#2F6BE3" class="acc"/>
<rect x="935" y="678" width="34" height="5" rx="1.4" fill="#2A2E35"/>
<rect x="935" y="686" width="34" height="5" rx="1.4" fill="#2A2E35"/>
<rect x="935" y="694" width="34" height="5" rx="1.4" fill="#2A2E35"/>
<rect x="935" y="702" width="34" height="5" rx="1.4" fill="#2A2E35"/>
<rect x="935" y="710" width="34" height="5" rx="1.4" fill="#2A2E35"/>
<rect x="935" y="718" width="34" height="5" rx="1.4" fill="#2A2E35"/>
<rect x="935" y="726" width="34" height="5" rx="1.4" fill="#2A2E35"/>
<rect x="935" y="734" width="34" height="5" rx="1.4" fill="#2A2E35"/>
<rect x="935" y="742" width="34" height="5" rx="1.4" fill="#2A2E35"/>
<rect x="935" y="694" width="34" height="5" rx="1.4" fill="#2F6BE3" class="acc"/>
<rect x="1003" y="645" width="182" height="125" rx="5" fill="#FFFFFF" stroke="#E6E4DE" stroke-width="1"/>
<text x="1013" y="658" font-family="Inter, -apple-system, Segoe UI, Roboto, sans-serif" font-size="9.5" font-weight="600" fill="#4A5160" text-anchor="start" dominant-baseline="central">4</text>
<rect x="1017" y="672" width="154" height="86" rx="3" fill="#111418"/>
<rect x="1021" y="676" width="104" height="78" rx="2" fill="#F4F3F0"/>
<text x="1027" y="690" font-family="Inter, -apple-system, Segoe UI, Roboto, sans-serif" font-size="6.6" font-weight="600" fill="#1B2430" text-anchor="start" dominant-baseline="central">Ut aperiam aliquid et</text>
<text x="1027" y="699" font-family="Inter, -apple-system, Segoe UI, Roboto, sans-serif" font-size="6.6" font-weight="600" fill="#1B2430" text-anchor="start" dominant-baseline="central">dolorum labore eos</text>
<rect x="1027" y="708" width="88" height="2.2" rx="1" fill="#B9BEC7"/>
<rect x="1027" y="714" width="88" height="2.2" rx="1" fill="#B9BEC7"/>
<rect x="1027" y="720" width="88" height="2.2" rx="1" fill="#B9BEC7"/>
<rect x="1027" y="726" width="88" height="2.2" rx="1" fill="#B9BEC7"/>
<rect x="1027" y="732" width="70" height="2.2" rx="1" fill="#B9BEC7"/>
<rect x="1027" y="742" width="34" height="6" rx="1.6" fill="#2F6BE3" class="acc"/>
<rect x="1131" y="678" width="34" height="5" rx="1.4" fill="#2A2E35"/>
<rect x="1131" y="686" width="34" height="5" rx="1.4" fill="#2A2E35"/>
<rect x="1131" y="694" width="34" height="5" rx="1.4" fill="#2A2E35"/>
<rect x="1131" y="702" width="34" height="5" rx="1.4" fill="#2A2E35"/>
<rect x="1131" y="710" width="34" height="5" rx="1.4" fill="#2A2E35"/>
<rect x="1131" y="718" width="34" height="5" rx="1.4" fill="#2A2E35"/>
<rect x="1131" y="726" width="34" height="5" rx="1.4" fill="#2A2E35"/>
<rect x="1131" y="734" width="34" height="5" rx="1.4" fill="#2A2E35"/>
<rect x="1131" y="742" width="34" height="5" rx="1.4" fill="#2A2E35"/>
<rect x="1131" y="702" width="34" height="5" rx="1.4" fill="#2F6BE3" class="acc"/>
<rect x="413" y="643" width="186" height="129" rx="6" fill="none" stroke="#2F6BE3" stroke-width="2" class="ring"/>
<text x="414" y="806" font-family="Inter, -apple-system, Segoe UI, Roboto, sans-serif" font-size="11.5" font-weight="400" fill="#4A5160" text-anchor="start" dominant-baseline="central">A small note, there are brand-specific</text>
<text x="414" y="899" font-family="Inter, -apple-system, Segoe UI, Roboto, sans-serif" font-size="16.5" font-weight="600" fill="#101828" text-anchor="start" dominant-baseline="central">Using colors</text>
<text x="430" y="948" font-family="Inter, -apple-system, Segoe UI, Roboto, sans-serif" font-size="11.5" font-weight="400" fill="#4A5160" text-anchor="end" dominant-baseline="central">1.</text>
<text x="437" y="948" font-family="Inter, -apple-system, Segoe UI, Roboto, sans-serif" font-size="11.5" font-weight="400" fill="#2A3240" text-anchor="start" dominant-baseline="central">All brand colors are now in one file. You no longer need to switch between brand library dropdowns to access colors.</text>
<text x="430" y="970" font-family="Inter, -apple-system, Segoe UI, Roboto, sans-serif" font-size="11.5" font-weight="400" fill="#4A5160" text-anchor="end" dominant-baseline="central">2.</text>
<text x="437" y="970" font-family="Inter, -apple-system, Segoe UI, Roboto, sans-serif" font-size="11.5" font-weight="400" fill="#2A3240" text-anchor="start" dominant-baseline="central">Brand tokens will appear first in the color picker, followed by raw primitive colors. To filter to a specific brand's palette,</text>
<text x="437" y="990" font-family="Inter, -apple-system, Segoe UI, Roboto, sans-serif" font-size="11.5" font-weight="400" fill="#2A3240" text-anchor="start" dominant-baseline="central">type “fdx”, “cm”, or “bc” in the color picker search.</text>
</g>
</svg>
