<svg xmlns="http://www.w3.org/2000/svg" width="1600" height="1000" viewBox="0 0 1600 1000" role="img">
<style>
.pick{animation:pick 18s cubic-bezier(.4,0,.2,1) infinite}
.surface{animation:surface 18s ease-in-out infinite}
.hd{fill:#101828;animation:hd 18s ease-in-out infinite}
.body{fill:#5A6172;animation:body 18s ease-in-out infinite}
.lnk{fill:#1A56DB;animation:lnk 18s ease-in-out infinite}
.lnks{stroke:#1A56DB;animation:lnks 18s ease-in-out infinite}
.mark{stroke:#1A56DB;animation:lnks 18s ease-in-out infinite}
.sec{animation-name:sec;animation-duration:18s;animation-timing-function:ease-out;animation-iteration-count:infinite}
.s1{animation-delay:.3s}.s2{animation-delay:.6s}.s3{animation-delay:.9s}
.s4{animation-delay:1.2s}.s5{animation-delay:1.5s}.s6{animation-delay:1.8s}.s7{animation-delay:2.1s}
@keyframes pick{0%,22%{transform:translateY(-43px)}25%,47%{transform:translateY(0)}50%,72%{transform:translateY(43px)}75%,97%{transform:translateY(86px)}100%{transform:translateY(-43px)}}
@keyframes surface{0%,22%{fill:#FFFFFF}25%,47%{fill:#F5F3EE}50%,72%{fill:#FFFFFF}75%,97%{fill:#F6F8FC}100%{fill:#FFFFFF}}
@keyframes hd{0%,22%{fill:#101828}25%,47%{fill:#1B1464}50%,72%{fill:#0B0B0B}75%,97%{fill:#0B0B0B}100%{fill:#101828}}
@keyframes body{0%,22%{fill:#5A6172}25%,47%{fill:#5A6172}50%,72%{fill:#4B5563}75%,97%{fill:#4B5563}100%{fill:#5A6172}}
@keyframes lnk{0%,22%{fill:#1A56DB}25%,47%{fill:#5B4BE0}50%,72%{fill:#2E5BFF}75%,97%{fill:#2149D3}100%{fill:#1A56DB}}
@keyframes lnks{0%,22%{stroke:#1A56DB}25%,47%{stroke:#5B4BE0}50%,72%{stroke:#2E5BFF}75%,97%{stroke:#2149D3}100%{stroke:#1A56DB}}
@keyframes sec{0%{opacity:0;transform:translateY(10px)}6%{opacity:1;transform:translateY(0)}94%{opacity:1;transform:translateY(0)}98%{opacity:0;transform:translateY(10px)}100%{opacity:0;transform:translateY(10px)}}
@media (prefers-reduced-motion:reduce){
.pick,.surface,.hd,.body,.lnk,.lnks,.mark,.sec{animation:none}
.sec{opacity:1;transform:none}
.surface{fill:#F5F3EE}
.hd{fill:#1B1464}
.lnk{fill:#5B4BE0}
.lnks,.mark{stroke:#5B4BE0}
}
</style>
<rect x="0" y="0" width="1600" height="1000" fill="#DDE1E8"/>
<defs><clipPath id="lib"><rect x="193" y="60" width="480" height="940" rx="14"/></clipPath><clipPath id="cards"><rect x="505" y="305" width="915" height="608" rx="16"/></clipPath></defs>
<g clip-path="url(#lib)">
<rect x="193" y="60" width="480" height="940" fill="#1E1E1E"/>
<g class="sec s0">
<rect x="218" y="126" width="430" height="91" rx="3" fill="#262626"/>
<rect x="230.0" y="140" width="81.0" height="22" rx="2" fill="#EDEFF4" opacity="0.92"/>
<rect x="233.0" y="144" width="48.6" height="2.4" fill="#AAB2C0"/>
<rect x="233.0" y="149" width="34.0" height="2.4" fill="#C3C9D4"/>
<rect x="325.0" y="140" width="81.0" height="16" rx="2" fill="#EDEFF4" opacity="0.92"/>
<rect x="328.0" y="144" width="48.6" height="2.4" fill="#AAB2C0"/>
<rect x="328.0" y="149" width="34.0" height="2.4" fill="#C3C9D4"/>
<rect x="420.0" y="140" width="81.0" height="16" rx="2" fill="#EDEFF4" opacity="0.92"/>
<rect x="423.0" y="144" width="48.6" height="2.4" fill="#AAB2C0"/>
<rect x="423.0" y="149" width="34.0" height="2.4" fill="#C3C9D4"/>
<rect x="515.0" y="140" width="81.0" height="22" rx="2" fill="#EDEFF4" opacity="0.92"/>
<rect x="518.0" y="144" width="48.6" height="2.4" fill="#AAB2C0"/>
<rect x="518.0" y="149" width="34.0" height="2.4" fill="#C3C9D4"/>
<rect x="230.0" y="176" width="81.0" height="22" rx="2" fill="#EDEFF4" opacity="0.92"/>
<rect x="233.0" y="180" width="48.6" height="2.4" fill="#AAB2C0"/>
<rect x="233.0" y="185" width="34.0" height="2.4" fill="#C3C9D4"/>
<rect x="325.0" y="176" width="81.0" height="16" rx="2" fill="#EDEFF4" opacity="0.92"/>
<rect x="328.0" y="180" width="48.6" height="2.4" fill="#AAB2C0"/>
<rect x="328.0" y="185" width="34.0" height="2.4" fill="#C3C9D4"/>
<rect x="420.0" y="176" width="81.0" height="16" rx="2" fill="#EDEFF4" opacity="0.92"/>
<rect x="423.0" y="180" width="48.6" height="2.4" fill="#AAB2C0"/>
<rect x="423.0" y="185" width="34.0" height="2.4" fill="#C3C9D4"/>
<rect x="515.0" y="176" width="81.0" height="22" rx="2" fill="#EDEFF4" opacity="0.92"/>
<rect x="518.0" y="180" width="48.6" height="2.4" fill="#AAB2C0"/>
<rect x="518.0" y="185" width="34.0" height="2.4" fill="#C3C9D4"/>
<rect x="230.0" y="212" width="81.0" height="22" rx="2" fill="#EDEFF4" opacity="0.92"/>
<rect x="233.0" y="216" width="48.6" height="2.4" fill="#AAB2C0"/>
<rect x="233.0" y="221" width="34.0" height="2.4" fill="#C3C9D4"/>
<rect x="325.0" y="212" width="81.0" height="16" rx="2" fill="#EDEFF4" opacity="0.92"/>
<rect x="328.0" y="216" width="48.6" height="2.4" fill="#AAB2C0"/>
<rect x="328.0" y="221" width="34.0" height="2.4" fill="#C3C9D4"/>
<rect x="420.0" y="212" width="81.0" height="16" rx="2" fill="#EDEFF4" opacity="0.92"/>
<rect x="423.0" y="216" width="48.6" height="2.4" fill="#AAB2C0"/>
<rect x="423.0" y="221" width="34.0" height="2.4" fill="#C3C9D4"/>
<rect x="515.0" y="212" width="81.0" height="22" rx="2" fill="#EDEFF4" opacity="0.92"/>
<rect x="518.0" y="216" width="48.6" height="2.4" fill="#AAB2C0"/>
<rect x="518.0" y="221" width="34.0" height="2.4" fill="#C3C9D4"/>
<rect x="220" y="89" width="194.9" height="30" rx="5" fill="#F3F4F6"/>
<text x="231" y="104" font-family="Inter, -apple-system, Segoe UI, Roboto, sans-serif" font-size="14.5" font-weight="600" fill="#1B1F27" text-anchor="start" dominant-baseline="central">Hero - 1 Col Center</text>
</g>
<g class="sec s1">
<rect x="218" y="263" width="430" height="65" rx="3" fill="#262626"/>
<rect x="230.0" y="277" width="62.0" height="22" rx="2" fill="#EDEFF4" opacity="0.92"/>
<rect x="233.0" y="281" width="37.2" height="2.4" fill="#AAB2C0"/>
<rect x="233.0" y="286" width="26.0" height="2.4" fill="#C3C9D4"/>
<rect x="306.0" y="277" width="62.0" height="16" rx="2" fill="#EDEFF4" opacity="0.92"/>
<rect x="309.0" y="281" width="37.2" height="2.4" fill="#AAB2C0"/>
<rect x="309.0" y="286" width="26.0" height="2.4" fill="#C3C9D4"/>
<rect x="382.0" y="277" width="62.0" height="16" rx="2" fill="#EDEFF4" opacity="0.92"/>
<rect x="385.0" y="281" width="37.2" height="2.4" fill="#AAB2C0"/>
<rect x="385.0" y="286" width="26.0" height="2.4" fill="#C3C9D4"/>
<rect x="458.0" y="277" width="62.0" height="22" rx="2" fill="#EDEFF4" opacity="0.92"/>
<rect x="461.0" y="281" width="37.2" height="2.4" fill="#AAB2C0"/>
<rect x="461.0" y="286" width="26.0" height="2.4" fill="#C3C9D4"/>
<rect x="534.0" y="277" width="62.0" height="16" rx="2" fill="#EDEFF4" opacity="0.92"/>
<rect x="537.0" y="281" width="37.2" height="2.4" fill="#AAB2C0"/>
<rect x="537.0" y="286" width="26.0" height="2.4" fill="#C3C9D4"/>
<rect x="230.0" y="307" width="62.0" height="16" rx="2" fill="#EDEFF4" opacity="0.92"/>
<rect x="233.0" y="311" width="37.2" height="2.4" fill="#AAB2C0"/>
<rect x="233.0" y="316" width="26.0" height="2.4" fill="#C3C9D4"/>
<rect x="306.0" y="307" width="62.0" height="16" rx="2" fill="#EDEFF4" opacity="0.92"/>
<rect x="309.0" y="311" width="37.2" height="2.4" fill="#AAB2C0"/>
<rect x="309.0" y="316" width="26.0" height="2.4" fill="#C3C9D4"/>
<rect x="382.0" y="307" width="62.0" height="22" rx="2" fill="#EDEFF4" opacity="0.92"/>
<rect x="385.0" y="311" width="37.2" height="2.4" fill="#AAB2C0"/>
<rect x="385.0" y="316" width="26.0" height="2.4" fill="#C3C9D4"/>
<rect x="458.0" y="307" width="62.0" height="16" rx="2" fill="#EDEFF4" opacity="0.92"/>
<rect x="461.0" y="311" width="37.2" height="2.4" fill="#AAB2C0"/>
<rect x="461.0" y="316" width="26.0" height="2.4" fill="#C3C9D4"/>
<rect x="534.0" y="307" width="62.0" height="16" rx="2" fill="#EDEFF4" opacity="0.92"/>
<rect x="537.0" y="311" width="37.2" height="2.4" fill="#AAB2C0"/>
<rect x="537.0" y="316" width="26.0" height="2.4" fill="#C3C9D4"/>
<rect x="230.0" y="343" width="81.0" height="22" rx="2" fill="#EDEFF4" opacity="0.92"/>
<rect x="233.0" y="347" width="48.6" height="2.4" fill="#AAB2C0"/>
<rect x="233.0" y="352" width="34.0" height="2.4" fill="#C3C9D4"/>
<rect x="325.0" y="343" width="81.0" height="16" rx="2" fill="#EDEFF4" opacity="0.92"/>
<rect x="328.0" y="347" width="48.6" height="2.4" fill="#AAB2C0"/>
<rect x="328.0" y="352" width="34.0" height="2.4" fill="#C3C9D4"/>
<rect x="420.0" y="343" width="81.0" height="16" rx="2" fill="#EDEFF4" opacity="0.92"/>
<rect x="423.0" y="347" width="48.6" height="2.4" fill="#AAB2C0"/>
<rect x="423.0" y="352" width="34.0" height="2.4" fill="#C3C9D4"/>
<rect x="515.0" y="343" width="81.0" height="22" rx="2" fill="#EDEFF4" opacity="0.92"/>
<rect x="518.0" y="347" width="48.6" height="2.4" fill="#AAB2C0"/>
<rect x="518.0" y="352" width="34.0" height="2.4" fill="#C3C9D4"/>
<rect x="230.0" y="379" width="112.7" height="22" rx="2" fill="#EDEFF4" opacity="0.92"/>
<rect x="233.0" y="383" width="67.6" height="2.4" fill="#AAB2C0"/>
<rect x="233.0" y="388" width="47.3" height="2.4" fill="#C3C9D4"/>
<rect x="356.7" y="379" width="112.7" height="16" rx="2" fill="#EDEFF4" opacity="0.92"/>
<rect x="359.7" y="383" width="67.6" height="2.4" fill="#AAB2C0"/>
<rect x="359.7" y="388" width="47.3" height="2.4" fill="#C3C9D4"/>
<rect x="483.3" y="379" width="112.7" height="16" rx="2" fill="#EDEFF4" opacity="0.92"/>
<rect x="486.3" y="383" width="67.6" height="2.4" fill="#AAB2C0"/>
<rect x="486.3" y="388" width="47.3" height="2.4" fill="#C3C9D4"/>
<rect x="220" y="226" width="131.2" height="30" rx="5" fill="#F3F4F6"/>
<text x="231" y="241" font-family="Inter, -apple-system, Segoe UI, Roboto, sans-serif" font-size="14.5" font-weight="600" fill="#1B1F27" text-anchor="start" dominant-baseline="central">Multi Column</text>
</g>
<g class="sec s2">
<rect x="218" y="374" width="430" height="64" rx="3" fill="#262626"/>
<rect x="230.0" y="388" width="81.0" height="22" rx="2" fill="#EDEFF4" opacity="0.92"/>
<rect x="233.0" y="392" width="48.6" height="2.4" fill="#AAB2C0"/>
<rect x="233.0" y="397" width="34.0" height="2.4" fill="#C3C9D4"/>
<rect x="325.0" y="388" width="81.0" height="16" rx="2" fill="#EDEFF4" opacity="0.92"/>
<rect x="328.0" y="392" width="48.6" height="2.4" fill="#AAB2C0"/>
<rect x="328.0" y="397" width="34.0" height="2.4" fill="#C3C9D4"/>
<rect x="420.0" y="388" width="81.0" height="16" rx="2" fill="#EDEFF4" opacity="0.92"/>
<rect x="423.0" y="392" width="48.6" height="2.4" fill="#AAB2C0"/>
<rect x="423.0" y="397" width="34.0" height="2.4" fill="#C3C9D4"/>
<rect x="515.0" y="388" width="81.0" height="22" rx="2" fill="#EDEFF4" opacity="0.92"/>
<rect x="518.0" y="392" width="48.6" height="2.4" fill="#AAB2C0"/>
<rect x="518.0" y="397" width="34.0" height="2.4" fill="#C3C9D4"/>
<rect x="230.0" y="424" width="112.7" height="22" rx="2" fill="#EDEFF4" opacity="0.92"/>
<rect x="233.0" y="428" width="67.6" height="2.4" fill="#AAB2C0"/>
<rect x="233.0" y="433" width="47.3" height="2.4" fill="#C3C9D4"/>
<rect x="356.7" y="424" width="112.7" height="16" rx="2" fill="#EDEFF4" opacity="0.92"/>
<rect x="359.7" y="428" width="67.6" height="2.4" fill="#AAB2C0"/>
<rect x="359.7" y="433" width="47.3" height="2.4" fill="#C3C9D4"/>
<rect x="483.3" y="424" width="112.7" height="16" rx="2" fill="#EDEFF4" opacity="0.92"/>
<rect x="486.3" y="428" width="67.6" height="2.4" fill="#AAB2C0"/>
<rect x="486.3" y="433" width="47.3" height="2.4" fill="#C3C9D4"/>
<rect x="220" y="337" width="222.2" height="30" rx="5" fill="#F3F4F6"/>
<text x="231" y="352" font-family="Inter, -apple-system, Segoe UI, Roboto, sans-serif" font-size="14.5" font-weight="600" fill="#1B1F27" text-anchor="start" dominant-baseline="central">Banner or Interstitial</text>
</g>
<g class="sec s3">
<rect x="218" y="484" width="430" height="65" rx="3" fill="#262626"/>
<rect x="230.0" y="498" width="112.7" height="22" rx="2" fill="#EDEFF4" opacity="0.92"/>
<rect x="233.0" y="502" width="67.6" height="2.4" fill="#AAB2C0"/>
<rect x="233.0" y="507" width="47.3" height="2.4" fill="#C3C9D4"/>
<rect x="356.7" y="498" width="112.7" height="16" rx="2" fill="#EDEFF4" opacity="0.92"/>
<rect x="359.7" y="502" width="67.6" height="2.4" fill="#AAB2C0"/>
<rect x="359.7" y="507" width="47.3" height="2.4" fill="#C3C9D4"/>
<rect x="483.3" y="498" width="112.7" height="16" rx="2" fill="#EDEFF4" opacity="0.92"/>
<rect x="486.3" y="502" width="67.6" height="2.4" fill="#AAB2C0"/>
<rect x="486.3" y="507" width="47.3" height="2.4" fill="#C3C9D4"/>
<rect x="230.0" y="528" width="112.7" height="16" rx="2" fill="#EDEFF4" opacity="0.92"/>
<rect x="233.0" y="532" width="67.6" height="2.4" fill="#AAB2C0"/>
<rect x="233.0" y="537" width="47.3" height="2.4" fill="#C3C9D4"/>
<rect x="356.7" y="528" width="112.7" height="16" rx="2" fill="#EDEFF4" opacity="0.92"/>
<rect x="359.7" y="532" width="67.6" height="2.4" fill="#AAB2C0"/>
<rect x="359.7" y="537" width="47.3" height="2.4" fill="#C3C9D4"/>
<rect x="483.3" y="528" width="112.7" height="22" rx="2" fill="#EDEFF4" opacity="0.92"/>
<rect x="486.3" y="532" width="67.6" height="2.4" fill="#AAB2C0"/>
<rect x="486.3" y="537" width="47.3" height="2.4" fill="#C3C9D4"/>
<rect x="230.0" y="564" width="112.7" height="22" rx="2" fill="#EDEFF4" opacity="0.92"/>
<rect x="233.0" y="568" width="67.6" height="2.4" fill="#AAB2C0"/>
<rect x="233.0" y="573" width="47.3" height="2.4" fill="#C3C9D4"/>
<rect x="356.7" y="564" width="112.7" height="16" rx="2" fill="#EDEFF4" opacity="0.92"/>
<rect x="359.7" y="568" width="67.6" height="2.4" fill="#AAB2C0"/>
<rect x="359.7" y="573" width="47.3" height="2.4" fill="#C3C9D4"/>
<rect x="483.3" y="564" width="112.7" height="16" rx="2" fill="#EDEFF4" opacity="0.92"/>
<rect x="486.3" y="568" width="67.6" height="2.4" fill="#AAB2C0"/>
<rect x="486.3" y="573" width="47.3" height="2.4" fill="#C3C9D4"/>
<rect x="220" y="447" width="58.4" height="30" rx="5" fill="#F3F4F6"/>
<text x="231" y="462" font-family="Inter, -apple-system, Segoe UI, Roboto, sans-serif" font-size="14.5" font-weight="600" fill="#1B1F27" text-anchor="start" dominant-baseline="central">Card</text>
</g>
<g class="sec s4">
<rect x="218" y="595" width="430" height="65" rx="3" fill="#262626"/>
<rect x="230.0" y="609" width="176.0" height="22" rx="2" fill="#EDEFF4" opacity="0.92"/>
<rect x="233.0" y="613" width="105.6" height="2.4" fill="#AAB2C0"/>
<rect x="233.0" y="618" width="73.9" height="2.4" fill="#C3C9D4"/>
<rect x="420.0" y="609" width="176.0" height="16" rx="2" fill="#EDEFF4" opacity="0.92"/>
<rect x="423.0" y="613" width="105.6" height="2.4" fill="#AAB2C0"/>
<rect x="423.0" y="618" width="73.9" height="2.4" fill="#C3C9D4"/>
<rect x="230.0" y="645" width="176.0" height="22" rx="2" fill="#EDEFF4" opacity="0.92"/>
<rect x="233.0" y="649" width="105.6" height="2.4" fill="#AAB2C0"/>
<rect x="233.0" y="654" width="73.9" height="2.4" fill="#C3C9D4"/>
<rect x="420.0" y="645" width="176.0" height="16" rx="2" fill="#EDEFF4" opacity="0.92"/>
<rect x="423.0" y="649" width="105.6" height="2.4" fill="#AAB2C0"/>
<rect x="423.0" y="654" width="73.9" height="2.4" fill="#C3C9D4"/>
<rect x="220" y="558" width="176.7" height="30" rx="5" fill="#F3F4F6"/>
<text x="231" y="573" font-family="Inter, -apple-system, Segoe UI, Roboto, sans-serif" font-size="14.5" font-weight="600" fill="#1B1F27" text-anchor="start" dominant-baseline="central">Carousel and Tabs</text>
</g>
<g class="sec s5">
<rect x="218" y="706" width="430" height="65" rx="3" fill="#262626"/>
<rect x="230.0" y="720" width="366.0" height="22" rx="2" fill="#EDEFF4" opacity="0.92"/>
<rect x="233.0" y="724" width="219.6" height="2.4" fill="#AAB2C0"/>
<rect x="233.0" y="729" width="153.7" height="2.4" fill="#C3C9D4"/>
<rect x="230.0" y="756" width="176.0" height="22" rx="2" fill="#EDEFF4" opacity="0.92"/>
<rect x="233.0" y="760" width="105.6" height="2.4" fill="#AAB2C0"/>
<rect x="233.0" y="765" width="73.9" height="2.4" fill="#C3C9D4"/>
<rect x="420.0" y="756" width="176.0" height="16" rx="2" fill="#EDEFF4" opacity="0.92"/>
<rect x="423.0" y="760" width="105.6" height="2.4" fill="#AAB2C0"/>
<rect x="423.0" y="765" width="73.9" height="2.4" fill="#C3C9D4"/>
<rect x="220" y="669" width="103.9" height="30" rx="5" fill="#F3F4F6"/>
<text x="231" y="684" font-family="Inter, -apple-system, Segoe UI, Roboto, sans-serif" font-size="14.5" font-weight="600" fill="#1B1F27" text-anchor="start" dominant-baseline="central">Accordion</text>
</g>
<g class="sec s6">
<rect x="218" y="817" width="430" height="65" rx="3" fill="#262626"/>
<rect x="230.0" y="831" width="366.0" height="22" rx="2" fill="#EDEFF4" opacity="0.92"/>
<rect x="233.0" y="835" width="219.6" height="2.4" fill="#AAB2C0"/>
<rect x="233.0" y="840" width="153.7" height="2.4" fill="#C3C9D4"/>
<rect x="230.0" y="861" width="366.0" height="16" rx="2" fill="#EDEFF4" opacity="0.92"/>
<rect x="233.0" y="865" width="219.6" height="2.4" fill="#AAB2C0"/>
<rect x="233.0" y="870" width="153.7" height="2.4" fill="#C3C9D4"/>
<rect x="230.0" y="891" width="366.0" height="16" rx="2" fill="#EDEFF4" opacity="0.92"/>
<rect x="233.0" y="895" width="219.6" height="2.4" fill="#AAB2C0"/>
<rect x="233.0" y="900" width="153.7" height="2.4" fill="#C3C9D4"/>
<rect x="220" y="780" width="58.4" height="30" rx="5" fill="#F3F4F6"/>
<text x="231" y="795" font-family="Inter, -apple-system, Segoe UI, Roboto, sans-serif" font-size="14.5" font-weight="600" fill="#1B1F27" text-anchor="start" dominant-baseline="central">Form</text>
</g>
<g class="sec s7">
<rect x="218" y="928" width="430" height="72" rx="3" fill="#262626"/>
<rect x="230.0" y="942" width="366.0" height="22" rx="2" fill="#EDEFF4" opacity="0.92"/>
<rect x="233.0" y="946" width="219.6" height="2.4" fill="#AAB2C0"/>
<rect x="233.0" y="951" width="153.7" height="2.4" fill="#C3C9D4"/>
<rect x="230.0" y="972" width="366.0" height="16" rx="2" fill="#EDEFF4" opacity="0.92"/>
<rect x="233.0" y="976" width="219.6" height="2.4" fill="#AAB2C0"/>
<rect x="233.0" y="981" width="153.7" height="2.4" fill="#C3C9D4"/>
<rect x="230.0" y="1008" width="366.0" height="22" rx="2" fill="#EDEFF4" opacity="0.92"/>
<rect x="233.0" y="1012" width="219.6" height="2.4" fill="#AAB2C0"/>
<rect x="233.0" y="1017" width="153.7" height="2.4" fill="#C3C9D4"/>
<rect x="220" y="891" width="140.3" height="30" rx="5" fill="#F3F4F6"/>
<text x="231" y="906" font-family="Inter, -apple-system, Segoe UI, Roboto, sans-serif" font-size="14.5" font-weight="600" fill="#1B1F27" text-anchor="start" dominant-baseline="central">Logo Showcase</text>
</g>
</g>
<g clip-path="url(#cards)">
<rect x="505" y="305" width="915" height="608" rx="16" fill="#F5F3EE" class="surface"/>
<g class="mark"><rect x="534" y="385" width="16" height="15" rx="4.5" fill="none" stroke-width="1.5"/><path d="M538.8 389.3v6.4M545.2 389.3v6.4" stroke-width="1.5" stroke-linecap="round" fill="none"/></g>
<text x="534" y="435" font-family="Inter, -apple-system, Segoe UI, Roboto, sans-serif" font-size="17.5" font-weight="600" fill="#D8D8D8" text-anchor="start" dominant-baseline="central" letter-spacing="-0.2" class="hd">Lorem ipsum dolor sit amet</text>
<text x="534" y="459" font-family="Inter, -apple-system, Segoe UI, Roboto, sans-serif" font-size="17.5" font-weight="600" fill="#D8D8D8" text-anchor="start" dominant-baseline="central" letter-spacing="-0.2" class="hd">prom patli percipit.</text>
<text x="534" y="490" font-family="Inter, -apple-system, Segoe UI, Roboto, sans-serif" font-size="11" font-weight="400" fill="#D8D8D8" text-anchor="start" dominant-baseline="central" class="body">Lorem ipsum dolor sit amet, id mel summo congue</text>
<text x="534" y="509" font-family="Inter, -apple-system, Segoe UI, Roboto, sans-serif" font-size="11" font-weight="400" fill="#D8D8D8" text-anchor="start" dominant-baseline="central" class="body">platonem, ei sit admodum docendi ea debet</text>
<text x="534" y="528" font-family="Inter, -apple-system, Segoe UI, Roboto, sans-serif" font-size="11" font-weight="400" fill="#D8D8D8" text-anchor="start" dominant-baseline="central" class="body">mucius eam qauo soleat.</text>
<text x="534" y="569" font-family="Inter, -apple-system, Segoe UI, Roboto, sans-serif" font-size="11" font-weight="500" fill="#D8D8D8" text-anchor="start" dominant-baseline="central" class="lnk">Learn more</text>
<path class="lnks" d="M604 564l4.4 5-4.4 5" fill="none" stroke-width="1.4" stroke-linecap="round" stroke-linejoin="round"/>
<g class="mark"><rect x="825" y="385" width="16" height="15" rx="4.5" fill="none" stroke-width="1.5"/><path d="M829.8 389.3v6.4M836.2 389.3v6.4" stroke-width="1.5" stroke-linecap="round" fill="none"/></g>
<text x="825" y="435" font-family="Inter, -apple-system, Segoe UI, Roboto, sans-serif" font-size="17.5" font-weight="600" fill="#D8D8D8" text-anchor="start" dominant-baseline="central" letter-spacing="-0.2" class="hd">Lorem ipsum dolor sit amet</text>
<text x="825" y="459" font-family="Inter, -apple-system, Segoe UI, Roboto, sans-serif" font-size="17.5" font-weight="600" fill="#D8D8D8" text-anchor="start" dominant-baseline="central" letter-spacing="-0.2" class="hd">prom patli percipit.</text>
<text x="825" y="490" font-family="Inter, -apple-system, Segoe UI, Roboto, sans-serif" font-size="11" font-weight="400" fill="#D8D8D8" text-anchor="start" dominant-baseline="central" class="body">Lorem ipsum dolor sit amet, id mel summo congue</text>
<text x="825" y="509" font-family="Inter, -apple-system, Segoe UI, Roboto, sans-serif" font-size="11" font-weight="400" fill="#D8D8D8" text-anchor="start" dominant-baseline="central" class="body">platonem, ei sit admodum docendi ea debet</text>
<text x="825" y="528" font-family="Inter, -apple-system, Segoe UI, Roboto, sans-serif" font-size="11" font-weight="400" fill="#D8D8D8" text-anchor="start" dominant-baseline="central" class="body">mucius eam qauo soleat.</text>
<text x="825" y="569" font-family="Inter, -apple-system, Segoe UI, Roboto, sans-serif" font-size="11" font-weight="500" fill="#D8D8D8" text-anchor="start" dominant-baseline="central" class="lnk">Learn more</text>
<path class="lnks" d="M895 564l4.4 5-4.4 5" fill="none" stroke-width="1.4" stroke-linecap="round" stroke-linejoin="round"/>
<g class="mark"><rect x="1116" y="385" width="16" height="15" rx="4.5" fill="none" stroke-width="1.5"/><path d="M1120.8 389.3v6.4M1127.2 389.3v6.4" stroke-width="1.5" stroke-linecap="round" fill="none"/></g>
<text x="1116" y="435" font-family="Inter, -apple-system, Segoe UI, Roboto, sans-serif" font-size="17.5" font-weight="600" fill="#D8D8D8" text-anchor="start" dominant-baseline="central" letter-spacing="-0.2" class="hd">Lorem ipsum dolor sit amet</text>
<text x="1116" y="459" font-family="Inter, -apple-system, Segoe UI, Roboto, sans-serif" font-size="17.5" font-weight="600" fill="#D8D8D8" text-anchor="start" dominant-baseline="central" letter-spacing="-0.2" class="hd">prom patli percipit.</text>
<text x="1116" y="490" font-family="Inter, -apple-system, Segoe UI, Roboto, sans-serif" font-size="11" font-weight="400" fill="#D8D8D8" text-anchor="start" dominant-baseline="central" class="body">Lorem ipsum dolor sit amet, id mel summo congue</text>
<text x="1116" y="509" font-family="Inter, -apple-system, Segoe UI, Roboto, sans-serif" font-size="11" font-weight="400" fill="#D8D8D8" text-anchor="start" dominant-baseline="central" class="body">platonem, ei sit admodum docendi ea debet</text>
<text x="1116" y="528" font-family="Inter, -apple-system, Segoe UI, Roboto, sans-serif" font-size="11" font-weight="400" fill="#D8D8D8" text-anchor="start" dominant-baseline="central" class="body">mucius eam qauo soleat.</text>
<text x="1116" y="569" font-family="Inter, -apple-system, Segoe UI, Roboto, sans-serif" font-size="11" font-weight="500" fill="#D8D8D8" text-anchor="start" dominant-baseline="central" class="lnk">Learn more</text>
<path class="lnks" d="M1186 564l4.4 5-4.4 5" fill="none" stroke-width="1.4" stroke-linecap="round" stroke-linejoin="round"/>
<g class="mark"><rect x="534" y="644" width="16" height="15" rx="4.5" fill="none" stroke-width="1.5"/><path d="M538.8 648.3v6.4M545.2 648.3v6.4" stroke-width="1.5" stroke-linecap="round" fill="none"/></g>
<text x="534" y="694" font-family="Inter, -apple-system, Segoe UI, Roboto, sans-serif" font-size="17.5" font-weight="600" fill="#D8D8D8" text-anchor="start" dominant-baseline="central" letter-spacing="-0.2" class="hd">Lorem ipsum dolor sit amet</text>
<text x="534" y="718" font-family="Inter, -apple-system, Segoe UI, Roboto, sans-serif" font-size="17.5" font-weight="600" fill="#D8D8D8" text-anchor="start" dominant-baseline="central" letter-spacing="-0.2" class="hd">prom patli percipit.</text>
<text x="534" y="749" font-family="Inter, -apple-system, Segoe UI, Roboto, sans-serif" font-size="11" font-weight="400" fill="#D8D8D8" text-anchor="start" dominant-baseline="central" class="body">Lorem ipsum dolor sit amet, id mel summo congue</text>
<text x="534" y="768" font-family="Inter, -apple-system, Segoe UI, Roboto, sans-serif" font-size="11" font-weight="400" fill="#D8D8D8" text-anchor="start" dominant-baseline="central" class="body">platonem, ei sit admodum docendi ea debet</text>
<text x="534" y="787" font-family="Inter, -apple-system, Segoe UI, Roboto, sans-serif" font-size="11" font-weight="400" fill="#D8D8D8" text-anchor="start" dominant-baseline="central" class="body">mucius eam qauo soleat.</text>
<text x="534" y="828" font-family="Inter, -apple-system, Segoe UI, Roboto, sans-serif" font-size="11" font-weight="500" fill="#D8D8D8" text-anchor="start" dominant-baseline="central" class="lnk">Learn more</text>
<path class="lnks" d="M604 823l4.4 5-4.4 5" fill="none" stroke-width="1.4" stroke-linecap="round" stroke-linejoin="round"/>
<g class="mark"><rect x="825" y="644" width="16" height="15" rx="4.5" fill="none" stroke-width="1.5"/><path d="M829.8 648.3v6.4M836.2 648.3v6.4" stroke-width="1.5" stroke-linecap="round" fill="none"/></g>
<text x="825" y="694" font-family="Inter, -apple-system, Segoe UI, Roboto, sans-serif" font-size="17.5" font-weight="600" fill="#D8D8D8" text-anchor="start" dominant-baseline="central" letter-spacing="-0.2" class="hd">Lorem ipsum dolor sit amet</text>
<text x="825" y="718" font-family="Inter, -apple-system, Segoe UI, Roboto, sans-serif" font-size="17.5" font-weight="600" fill="#D8D8D8" text-anchor="start" dominant-baseline="central" letter-spacing="-0.2" class="hd">prom patli percipit.</text>
<text x="825" y="749" font-family="Inter, -apple-system, Segoe UI, Roboto, sans-serif" font-size="11" font-weight="400" fill="#D8D8D8" text-anchor="start" dominant-baseline="central" class="body">Lorem ipsum dolor sit amet, id mel summo congue</text>
<text x="825" y="768" font-family="Inter, -apple-system, Segoe UI, Roboto, sans-serif" font-size="11" font-weight="400" fill="#D8D8D8" text-anchor="start" dominant-baseline="central" class="body">platonem, ei sit admodum docendi ea debet</text>
<text x="825" y="787" font-family="Inter, -apple-system, Segoe UI, Roboto, sans-serif" font-size="11" font-weight="400" fill="#D8D8D8" text-anchor="start" dominant-baseline="central" class="body">mucius eam qauo soleat.</text>
<text x="825" y="828" font-family="Inter, -apple-system, Segoe UI, Roboto, sans-serif" font-size="11" font-weight="500" fill="#D8D8D8" text-anchor="start" dominant-baseline="central" class="lnk">Learn more</text>
<path class="lnks" d="M895 823l4.4 5-4.4 5" fill="none" stroke-width="1.4" stroke-linecap="round" stroke-linejoin="round"/>
<g class="mark"><rect x="1116" y="644" width="16" height="15" rx="4.5" fill="none" stroke-width="1.5"/><path d="M1120.8 648.3v6.4M1127.2 648.3v6.4" stroke-width="1.5" stroke-linecap="round" fill="none"/></g>
<text x="1116" y="694" font-family="Inter, -apple-system, Segoe UI, Roboto, sans-serif" font-size="17.5" font-weight="600" fill="#D8D8D8" text-anchor="start" dominant-baseline="central" letter-spacing="-0.2" class="hd">Lorem ipsum dolor sit amet</text>
<text x="1116" y="718" font-family="Inter, -apple-system, Segoe UI, Roboto, sans-serif" font-size="17.5" font-weight="600" fill="#D8D8D8" text-anchor="start" dominant-baseline="central" letter-spacing="-0.2" class="hd">prom patli percipit.</text>
<text x="1116" y="749" font-family="Inter, -apple-system, Segoe UI, Roboto, sans-serif" font-size="11" font-weight="400" fill="#D8D8D8" text-anchor="start" dominant-baseline="central" class="body">Lorem ipsum dolor sit amet, id mel summo congue</text>
<text x="1116" y="768" font-family="Inter, -apple-system, Segoe UI, Roboto, sans-serif" font-size="11" font-weight="400" fill="#D8D8D8" text-anchor="start" dominant-baseline="central" class="body">platonem, ei sit admodum docendi ea debet</text>
<text x="1116" y="787" font-family="Inter, -apple-system, Segoe UI, Roboto, sans-serif" font-size="11" font-weight="400" fill="#D8D8D8" text-anchor="start" dominant-baseline="central" class="body">mucius eam qauo soleat.</text>
<text x="1116" y="828" font-family="Inter, -apple-system, Segoe UI, Roboto, sans-serif" font-size="11" font-weight="500" fill="#D8D8D8" text-anchor="start" dominant-baseline="central" class="lnk">Learn more</text>
<path class="lnks" d="M1186 823l4.4 5-4.4 5" fill="none" stroke-width="1.4" stroke-linecap="round" stroke-linejoin="round"/>
</g>
<rect x="1070" y="118" width="220" height="229" rx="13" fill="#1E1E1E"/>
<text x="1097" y="151" font-family="Inter, -apple-system, Segoe UI, Roboto, sans-serif" font-size="17.5" font-weight="400" fill="#8C8C8C" text-anchor="start" dominant-baseline="central">Mode</text>
<rect x="1081" y="217" width="198" height="38" rx="8" fill="#0D99FF" class="pick"/>
<path class="pick" d="M1096 236l5.5 5.5 10-11.8" fill="none" stroke="#FFFFFF" stroke-width="2.4" stroke-linecap="round" stroke-linejoin="round"/>
<text x="1125" y="194" font-family="Inter, -apple-system, Segoe UI, Roboto, sans-serif" font-size="19" font-weight="400" fill="#FFFFFF" text-anchor="start" dominant-baseline="central">Base</text>
<text x="1125" y="237" font-family="Inter, -apple-system, Segoe UI, Roboto, sans-serif" font-size="19" font-weight="400" fill="#FFFFFF" text-anchor="start" dominant-baseline="central">CM</text>
<text x="1125" y="280" font-family="Inter, -apple-system, Segoe UI, Roboto, sans-serif" font-size="19" font-weight="400" fill="#FFFFFF" text-anchor="start" dominant-baseline="central">BC</text>
<text x="1125" y="323" font-family="Inter, -apple-system, Segoe UI, Roboto, sans-serif" font-size="19" font-weight="400" fill="#FFFFFF" text-anchor="start" dominant-baseline="central">FDX</text>
</svg>
